<?xml version="1.0" standalone="no"?>
<!DOCTYPE svg PUBLIC "-//W3C//DTD SVG 20010904//EN"
 "http://www.w3.org/TR/2001/REC-SVG-20010904/DTD/svg10.dtd">
<svg version="1.0" xmlns="http://www.w3.org/2000/svg"
 width="640.000000pt" height="640.000000pt" viewBox="0 0 640.000000 640.000000"
 preserveAspectRatio="xMidYMid meet">
<metadata>
Created by potrace 1.14, written by Peter Selinger 2001-2017
</metadata>
<g transform="translate(0.000000,640.000000) scale(0.100000,-0.100000)"
fill="#000000" stroke="none">
<path d="M3575 5951 c-61 -29 -142 -101 -114 -101 104 0 483 -92 591 -143 70
-33 76 -34 138 -25 36 5 121 12 189 16 75 4 126 11 128 18 2 6 -42 22 -109 38
-177 43 -325 92 -418 137 -206 100 -294 113 -405 60z"/>
<path d="M4442 5964 c-22 -15 -32 -74 -13 -74 21 0 62 44 59 63 -4 27 -18 31
-46 11z"/>
<path d="M4360 5881 c-13 -25 -13 -68 -1 -76 12 -7 26 19 34 63 5 24 3 32 -8
32 -8 0 -19 -9 -25 -19z"/>
<path d="M4461 5613 c-15 -10 -49 -17 -93 -19 -91 -3 -159 -12 -231 -30 -61
-15 -163 -60 -173 -75 -12 -20 -52 -7 -113 36 -46 32 -75 45 -98 45 -43 0 -73
-16 -73 -38 0 -23 70 -68 138 -89 51 -16 56 -16 100 1 151 59 151 59 262 52
58 -4 121 -10 140 -14 32 -7 35 -11 40 -51 l5 -43 25 64 c22 58 44 98 86 156
20 26 16 28 -15 5z m-41 -33 c0 -5 -2 -10 -4 -10 -3 0 -8 5 -11 10 -3 6 -1 10
4 10 6 0 11 -4 11 -10z"/>
<path d="M1 5533 c-1 -76 2 -93 14 -93 8 0 15 -7 15 -15 0 -8 -7 -15 -15 -15
-8 0 -15 -7 -15 -15 0 -8 9 -15 19 -15 11 0 22 -8 26 -19 5 -16 61 -38 72 -27
2 2 -1 16 -7 32 -11 27 -13 28 -24 12 -16 -22 -26 -23 -26 -3 0 8 5 15 10 15
6 0 20 11 32 25 14 16 28 23 40 19 26 -8 24 32 -2 46 -25 14 -26 40 -1 40 27
0 51 10 51 22 0 5 -12 9 -27 8 -52 -4 -65 0 -60 14 4 10 -4 15 -26 19 -18 2
-33 1 -35 -4 -7 -17 -20 -9 -30 19 -8 22 -11 9 -11 -65z m95 -11 c-10 -2 -22
0 -28 6 -6 6 0 7 19 4 21 -5 23 -7 9 -10z"/>
<path d="M170 5446 c0 -2 7 -7 16 -10 8 -3 12 -2 9 4 -6 10 -25 14 -25 6z"/>
<path d="M13 5259 c-10 -10 -13 -62 -13 -192 0 -159 2 -178 16 -173 9 3 22 6
30 6 8 0 14 7 14 15 0 8 7 15 15 15 23 0 29 27 11 45 -22 22 -20 34 4 28 11
-3 20 0 20 6 0 5 7 8 15 5 19 -8 20 19 1 35 -17 14 -28 51 -15 51 5 0 9 6 9
14 0 8 7 16 15 20 8 3 15 11 15 17 0 7 7 21 16 31 16 17 15 19 -13 30 -16 7
-28 18 -26 24 2 6 -11 14 -29 17 -18 4 -42 9 -53 12 -11 3 -26 0 -32 -6z m17
-119 c0 -5 -4 -10 -10 -10 -5 0 -10 5 -10 10 0 6 5 10 10 10 6 0 10 -4 10 -10z"/>
<path d="M4942 5255 c25 -14 48 -63 48 -103 0 -7 5 -10 10 -7 6 3 10 21 10 40
0 25 -8 40 -31 59 -17 14 -38 26 -47 26 -12 -1 -8 -6 10 -15z"/>
<path d="M4499 5152 c-14 -9 -54 -46 -88 -80 -52 -53 -62 -68 -57 -88 8 -30
22 -31 30 -1 7 28 47 78 110 140 49 48 52 61 5 29z"/>
<path d="M247 4803 c-14 -15 -21 -16 -37 -5 -11 7 -20 8 -20 3 0 -5 -8 -8 -17
-7 -14 1 -18 -6 -16 -26 l2 -28 -34 15 c-19 7 -37 10 -40 5 -9 -15 7 -41 31
-50 21 -8 23 -14 20 -60 -2 -27 0 -50 5 -50 5 0 9 -4 9 -8 0 -11 -62 -2 -79
11 -10 9 -16 7 -26 -6 -7 -11 -19 -15 -29 -11 -15 6 -17 -3 -15 -75 2 -75 3
-81 20 -76 21 7 24 -2 9 -25 -6 -10 -10 -11 -10 -2 0 6 -4 12 -10 12 -6 0 -10
-27 -10 -60 0 -45 4 -60 14 -60 9 0 12 7 9 19 -3 13 2 20 19 25 14 5 18 9 11
13 -16 6 -17 43 -2 43 5 0 8 -4 5 -8 -10 -17 40 -7 57 12 19 21 19 21 36 -12
10 -19 15 -21 27 -11 12 10 19 8 36 -10 26 -29 11 -49 -21 -29 -15 9 -24 10
-29 2 -4 -6 -27 -10 -52 -10 -41 1 -45 -1 -43 -21 2 -14 -4 -24 -17 -28 -11
-4 -20 -15 -20 -27 0 -13 -5 -18 -14 -15 -12 5 -14 -15 -13 -124 l2 -129 17
35 c12 23 23 32 33 29 9 -4 15 0 15 7 0 21 13 36 36 43 17 5 23 2 27 -15 4
-15 11 -20 21 -15 9 3 23 9 31 12 8 3 15 1 15 -6 0 -18 -24 -37 -39 -32 -10 3
-12 0 -8 -12 4 -10 7 -24 7 -31 0 -8 10 -15 22 -17 11 -2 22 -11 24 -20 1 -11
-3 -15 -12 -11 -8 3 -14 0 -14 -7 0 -8 -9 -11 -27 -7 -29 6 -79 -21 -56 -30
20 -7 2 -33 -23 -33 -13 0 -24 -6 -25 -12 0 -7 -2 -21 -4 -31 -2 -13 1 -17 11
-13 8 3 14 2 14 -2 0 -11 -40 -33 -50 -27 -12 8 -17 -19 -19 -97 0 -38 4 -68
9 -68 6 0 9 4 7 9 -1 5 1 9 6 10 4 1 7 -2 7 -6 1 -15 74 -83 90 -83 19 -1 -54
-65 -92 -81 -16 -6 -28 -15 -28 -20 0 -12 6 -11 42 7 22 11 33 13 41 5 6 -6
22 -11 35 -11 21 0 23 -2 12 -15 -10 -12 -10 -21 -2 -40 11 -24 12 -25 30 -8
26 26 16 60 -24 79 -19 9 -34 18 -34 20 0 2 27 4 60 4 60 0 60 0 60 -30 0 -22
4 -28 15 -24 8 4 15 17 15 30 0 14 6 24 14 24 29 0 25 -18 -8 -48 -36 -31 -76
-91 -43 -63 14 11 17 11 17 0 -1 -16 -24 -49 -35 -49 -4 0 -4 7 -1 15 5 14 4
14 -16 0 -26 -17 -42 -20 -33 -4 4 6 -1 17 -11 24 -26 20 -34 18 -34 -6 0 -11
-5 -17 -10 -14 -5 3 -10 2 -10 -4 0 -5 5 -13 11 -16 6 -5 4 -12 -8 -21 -14
-11 -15 -13 -2 -8 9 3 19 -1 22 -9 4 -10 -2 -17 -15 -20 -11 -3 -17 -10 -13
-16 3 -6 1 -11 -4 -11 -6 0 -11 12 -11 26 0 20 -4 25 -16 20 -9 -3 -22 -6 -30
-6 -10 0 -14 -14 -14 -57 0 -40 3 -53 10 -43 8 12 10 12 16 -3 3 -9 12 -17 19
-17 10 0 11 -8 5 -32 l-10 -33 20 25 c20 25 23 38 21 75 l-1 20 9 -20 c8 -18
10 -18 16 -3 4 9 4 21 1 27 -4 5 -2 12 3 15 5 4 12 2 16 -4 4 -6 11 -8 16 -5
12 8 11 0 -5 -40 -8 -19 -22 -35 -30 -35 -9 0 -16 -6 -16 -13 0 -19 -45 -59
-55 -50 -4 5 -5 3 -2 -3 4 -7 0 -14 -7 -17 -8 -3 -17 -1 -19 6 -3 7 -5 -66 -6
-162 -2 -152 0 -173 14 -168 8 4 15 2 15 -3 0 -6 -5 -10 -11 -10 -8 0 -7 -6 2
-17 12 -15 12 -16 -4 -10 -15 6 -17 0 -17 -43 0 -49 1 -50 30 -50 27 0 30 2
24 25 -8 30 14 34 39 7 28 -30 31 -74 8 -98 -11 -12 -17 -25 -14 -28 8 -8 -11
-8 -31 0 -9 3 -16 12 -16 19 0 7 -8 15 -18 17 -18 5 -19 -4 -20 -129 l-2 -134
35 7 c39 7 75 -15 75 -45 0 -9 -3 -12 -8 -6 -11 16 -40 14 -47 -2 -4 -12 0
-14 20 -9 19 5 25 3 25 -11 0 -16 1 -16 13 1 10 14 18 15 40 7 15 -6 27 -15
27 -21 0 -7 6 -7 20 0 21 11 40 6 40 -11 0 -5 -9 -9 -19 -9 -22 0 -38 -19 -25
-29 5 -3 9 -13 9 -21 0 -9 11 -16 29 -18 25 -3 28 -1 23 17 -7 28 3 26 37 -9
18 -19 40 -30 56 -30 25 0 60 -26 60 -45 0 -5 10 -19 22 -32 21 -23 21 -23 2
-38 -18 -14 -18 -14 8 -15 18 0 29 6 33 19 4 13 11 18 22 14 12 -5 15 -2 10
10 -4 11 -1 17 9 17 8 0 12 -5 8 -11 -4 -6 4 -5 17 2 l24 14 -29 3 -28 4 23
24 c12 13 20 27 16 30 -3 3 -19 -9 -35 -27 -28 -32 -30 -32 -47 -15 -10 9 -30
25 -44 34 -14 9 -30 22 -34 29 -4 7 -14 13 -21 13 -8 0 -17 7 -20 16 -9 23 -7
36 3 29 23 -14 21 19 -3 44 -14 15 -26 32 -26 38 0 7 -7 19 -16 27 -14 15 -13
16 12 16 21 0 25 -3 17 -11 -13 -13 3 -58 21 -60 6 0 21 -2 34 -3 14 -2 27 4
33 16 6 12 6 18 -1 18 -5 0 -10 9 -10 20 0 11 -4 20 -9 20 -5 0 -11 8 -14 18
-4 9 -13 31 -21 48 l-14 32 26 -14 c35 -18 48 -18 56 2 9 23 9 23 -35 40 -26
11 -38 21 -35 30 3 7 1 16 -3 19 -16 9 1 45 20 45 13 0 19 7 20 23 l0 22 9
-22 c8 -21 21 -28 43 -24 4 1 12 -11 17 -25 l10 -26 27 28 26 28 -22 14 c-24
16 -29 47 -7 39 11 -4 16 3 18 26 3 29 6 32 33 29 27 -2 28 -1 13 11 -23 18
-13 57 13 50 28 -8 23 16 -6 27 -14 5 -25 13 -25 18 0 14 97 92 134 107 36 15
46 12 46 -16 0 -13 8 -17 30 -17 33 1 47 12 30 23 -6 4 -8 11 -4 16 3 5 0 16
-6 24 -10 12 -9 15 4 15 30 0 75 -30 91 -60 9 -17 18 -30 21 -30 2 0 0 9 -6
19 -14 27 -13 31 10 31 17 0 19 3 10 19 -14 28 -13 31 15 31 14 0 25 -6 25
-13 0 -8 9 -22 20 -32 19 -17 19 -17 7 14 -15 41 0 67 37 63 32 -3 45 21 22
43 -22 23 -22 67 1 58 11 -4 14 -3 9 5 -4 7 -25 15 -47 18 -29 5 -39 11 -35
21 3 8 -2 17 -12 20 -9 4 -21 12 -27 19 -5 7 -20 15 -32 19 -20 6 -23 3 -23
-23 0 -33 22 -57 44 -49 10 4 20 -5 31 -25 19 -39 19 -38 -6 -38 -15 0 -19 -4
-15 -16 3 -9 6 -18 6 -20 0 -2 7 -4 15 -4 8 0 15 -4 15 -9 0 -18 -35 -17 -73
1 -22 11 -42 17 -45 14 -3 -3 -14 1 -24 11 -17 15 -18 15 -18 -5 0 -23 -14
-29 -25 -12 -3 6 -1 10 6 10 7 0 5 8 -7 21 -10 12 -17 24 -14 28 3 3 -5 7 -18
9 -18 3 -21 8 -16 28 4 15 2 24 -6 24 -7 0 -10 -6 -7 -14 3 -8 -1 -17 -10 -20
-13 -5 -14 -1 -9 25 6 29 4 31 -19 27 -17 -4 -30 2 -44 18 -12 13 -27 24 -34
24 -21 0 -16 -32 7 -52 l21 -17 -22 -1 c-20 0 -21 -3 -13 -24 5 -13 6 -26 4
-29 -3 -3 1 -15 8 -26 11 -18 11 -23 -2 -31 -23 -15 -29 -12 -23 10 4 16 0 20
-21 20 -14 0 -26 5 -26 10 0 6 -4 10 -10 10 -5 0 -10 -7 -10 -16 0 -23 -24
-11 -28 14 -3 21 -32 32 -32 12 0 -5 -7 -10 -15 -10 -8 0 -15 5 -15 12 0 9 -3
9 -12 0 -18 -18 -78 -15 -78 3 0 13 -7 15 -34 9 -28 -5 -37 -2 -48 15 -7 12
-21 21 -30 21 -12 0 -15 5 -11 16 3 9 0 20 -7 24 -18 11 -4 29 19 23 13 -3 21
2 26 16 3 12 13 21 21 21 8 0 14 5 14 10 0 6 5 10 10 10 6 0 8 -11 4 -25 -6
-23 -3 -25 27 -27 69 -3 86 -5 99 -13 10 -6 11 -2 6 19 -4 18 -3 25 4 21 5 -3
10 0 10 8 0 19 -36 50 -50 42 -6 -4 -17 -2 -24 4 -16 14 -62 16 -95 6 -43 -14
-18 16 29 36 60 24 90 24 90 0 0 -29 40 -34 63 -8 17 20 19 20 28 5 5 -10 25
-20 44 -24 30 -5 35 -10 35 -33 0 -24 4 -26 40 -27 42 -1 50 10 30 46 -13 24
3 35 20 15 7 -8 15 -15 19 -15 13 0 8 56 -6 73 -15 16 -14 17 15 11 25 -5 32
-3 32 9 0 17 -21 42 -42 50 -9 4 -10 8 -3 14 6 4 12 18 12 30 1 16 -2 20 -14
16 -12 -5 -15 -2 -10 10 3 10 0 20 -8 24 -18 11 -25 59 -7 56 6 -2 12 2 12 7
0 6 7 10 15 10 8 0 15 -9 15 -20 0 -20 32 -44 44 -33 3 3 3 23 0 43 -6 36 -5
37 20 33 17 -4 26 -12 26 -23 0 -29 11 -50 26 -50 15 0 19 26 5 34 -5 3 -11
15 -14 26 -4 17 -2 18 14 9 10 -5 19 -13 19 -18 0 -13 65 -81 78 -81 8 0 10 8
6 24 -3 13 -1 34 6 46 14 26 -1 49 -34 51 -19 1 -18 2 4 9 14 4 19 8 13 9 -7
1 -13 10 -13 20 0 11 -5 23 -10 26 -16 10 8 35 31 35 13 0 19 -7 19 -23 0 -41
31 -58 90 -48 3 1 5 12 5 26 0 20 -5 25 -27 25 -23 0 -26 4 -25 25 1 14 8 29
15 34 9 5 4 14 -17 31 -17 12 -28 26 -25 31 6 11 -15 52 -32 62 -8 4 -14 12
-14 17 0 16 36 12 50 -5 16 -19 27 -19 47 1 14 14 14 16 -5 21 -12 3 -24 15
-28 27 -4 11 -15 27 -25 34 -25 17 -24 32 1 32 11 0 20 4 20 8 0 12 -45 53
-56 51 -5 -1 -19 -1 -31 0 -19 1 -21 5 -16 37 l6 35 -54 -3 c-30 -1 -69 1 -87
6 l-32 8 21 -36 c11 -20 27 -36 35 -36 21 0 17 -38 -5 -50 -28 -14 -41 -12
-35 5 4 8 3 22 0 31 -5 13 -9 14 -20 5 -10 -8 -21 -9 -42 -1 -26 10 -27 13
-11 21 12 7 17 22 17 49 0 42 5 45 61 41 36 -3 55 22 33 43 -9 10 -14 19 -12
21 3 3 15 -6 27 -19 21 -22 61 -26 61 -5 0 5 7 6 15 3 12 -5 15 3 15 35 0 28
-4 41 -14 41 -7 0 -18 6 -25 13 -8 11 -5 13 19 9 17 -2 30 -8 30 -13 0 -5 7
-9 16 -9 11 0 14 5 10 16 -3 9 -6 27 -6 40 0 15 -6 24 -15 24 -10 0 -15 -7
-13 -17 2 -13 -4 -18 -22 -18 -17 0 -26 6 -28 20 -3 16 -1 18 9 8 18 -18 32
-16 25 2 -8 22 3 45 20 38 7 -3 17 2 20 11 7 18 -41 75 -63 76 -7 0 -13 5 -13
10 0 6 -9 10 -20 10 -13 0 -18 5 -14 15 4 9 0 15 -9 15 -8 0 -17 -7 -21 -15
-7 -19 -62 -20 -69 -1 -3 8 1 20 8 26 18 15 12 26 -14 33 -13 3 -31 -4 -47
-18 l-26 -23 18 -31 c18 -31 48 -44 38 -16 -11 26 22 16 34 -11 7 -14 8 -23 2
-19 -5 3 -10 2 -10 -2 0 -5 -10 -14 -22 -22 -19 -12 -23 -11 -35 5 -12 17 -13
16 -13 -4 0 -22 -1 -22 -31 -6 -26 13 -33 14 -40 2 -5 -7 -9 -9 -9 -4 0 5 -9
1 -19 -8 -39 -36 -124 -26 -114 12 3 15 -2 21 -26 25 -18 4 -31 13 -31 21 0 8
-8 20 -17 26 -15 10 -14 11 7 6 24 -5 99 12 101 23 11 58 7 66 -33 62 -13 -2
-16 2 -11 16 4 10 11 21 17 26 7 5 5 12 -6 21 -20 14 -14 28 8 19 8 -3 14 -13
14 -22 0 -30 18 -44 59 -46 38 -2 41 -1 41 25 0 18 -8 31 -25 40 -14 7 -25 17
-25 21 0 4 -15 5 -34 2 -28 -4 -34 -2 -39 16 -3 12 -1 24 4 27 15 9 0 24 -23
24 -11 0 -37 18 -57 40 -35 38 -37 39 -54 23z m-62 -83 c3 -5 2 -10 -4 -10 -5
0 -13 5 -16 10 -3 6 -2 10 4 10 5 0 13 -4 16 -10z m44 -28 c-10 -2 -19 -8 -19
-13 0 -5 -4 -9 -10 -9 -11 0 -1 32 13 42 6 3 16 1 22 -5 10 -10 9 -13 -6 -15z
m-55 -20 c3 -5 -1 -9 -9 -9 -8 0 -12 4 -9 9 3 4 7 8 9 8 2 0 6 -4 9 -8z m-9
-52 c3 -5 1 -10 -4 -10 -6 0 -11 5 -11 10 0 6 2 10 4 10 3 0 8 -4 11 -10z m66
-16 c12 -14 11 -16 -5 -13 -11 2 -21 10 -24 17 -5 17 13 15 29 -4z m-141 -78
c0 -9 -30 -14 -35 -6 -4 6 3 10 14 10 12 0 21 -2 21 -4z m140 -101 c0 -8 -2
-15 -4 -15 -2 0 -6 7 -10 15 -3 8 -1 15 4 15 6 0 10 -7 10 -15z m500 -11 c0
-8 5 -12 10 -9 6 3 10 1 10 -4 0 -18 -19 -12 -30 8 -13 25 -13 34 0 26 6 -3
10 -13 10 -21z m-32 -33 c3 -8 0 -11 -7 -7 -6 4 -11 1 -11 -8 0 -8 -9 -18 -20
-21 -15 -5 -19 -12 -15 -26 6 -18 5 -18 -24 -1 -27 15 -29 17 -11 20 14 2 23
14 27 33 5 25 10 30 31 27 14 -2 28 -9 30 -17z m-128 -35 c0 -11 -19 -15 -25
-6 -3 5 1 10 9 10 9 0 16 -2 16 -4z m-165 -16 c3 -5 1 -10 -4 -10 -6 0 -11 5
-11 10 0 6 2 10 4 10 3 0 8 -4 11 -10z m355 -30 c0 -5 -4 -10 -9 -10 -6 0 -13
5 -16 10 -3 6 1 10 9 10 9 0 16 -4 16 -10z m-615 -8 c6 -4 11 -16 12 -27 1
-11 5 -34 9 -51 5 -26 1 -33 -20 -48 -15 -9 -31 -14 -35 -11 -5 3 -12 -1 -14
-7 -4 -8 -6 -9 -6 -2 -1 6 6 17 14 24 20 17 19 49 -2 57 -46 18 -52 58 -10 66
36 7 42 7 52 -1z m255 -2 c5 8 15 10 26 5 18 -8 18 -8 2 -12 -24 -6 -23 -19 2
-26 33 -9 23 -36 -38 -100 -32 -34 -74 -83 -92 -109 -18 -27 -35 -48 -37 -48
-2 0 -1 4 2 10 3 5 2 18 -4 28 -11 21 1 48 18 38 6 -4 9 -1 5 7 -5 15 21 31
36 22 15 -9 23 17 9 26 -11 7 -9 10 9 15 22 6 32 34 12 34 -21 0 -9 41 15 52
30 14 31 24 5 40 -27 17 -26 32 1 17 17 -8 23 -8 29 1z m290 -11 c0 -6 -4 -7
-10 -4 -5 3 -10 11 -10 16 0 6 5 7 10 4 6 -3 10 -11 10 -16z m48 -20 c8 -3 5
-9 -9 -18 -19 -11 -21 -11 -16 3 3 8 2 18 -3 21 -6 4 -10 12 -10 18 1 7 5 6
13 -4 7 -9 18 -18 25 -20z m-213 -49 c8 -13 -5 -13 -25 0 -13 8 -13 10 2 10 9
0 20 -4 23 -10z m75 -10 c0 -22 -34 -28 -46 -9 -4 8 0 9 15 4 15 -5 21 -2 21
9 0 9 2 16 5 16 3 0 5 -9 5 -20z m-110 -11 c0 -6 -4 -7 -10 -4 -5 3 -10 11
-10 16 0 6 5 7 10 4 6 -3 10 -11 10 -16z m-35 -87 c2 -7 0 -10 -5 -7 -5 3 -19
8 -30 10 -17 3 -20 0 -15 -15 5 -16 2 -20 -20 -20 -17 0 -25 -4 -22 -12 2 -7
10 -12 16 -10 14 3 14 -4 0 -29 -5 -11 -18 -19 -27 -18 -37 3 -43 0 -33 -19 7
-14 6 -18 -9 -19 -34 -3 -31 27 7 75 75 95 82 101 108 88 14 -6 27 -17 30 -24z
m170 -2 c3 -5 1 -10 -4 -10 -6 0 -11 5 -11 10 0 6 2 10 4 10 3 0 8 -4 11 -10z
m-151 -78 c-4 -12 -13 -22 -20 -22 -8 0 -14 -5 -14 -10 0 -6 -11 -8 -25 -4
-15 4 -32 1 -40 -6 -9 -7 -18 -10 -21 -7 -3 3 15 17 39 32 25 14 51 33 58 41
16 19 30 5 23 -24z m113 -27 c7 -20 -2 -29 -21 -22 -9 4 -13 13 -10 22 8 19
23 19 31 0z m188 -25 c3 -5 1 -10 -4 -10 -6 0 -11 5 -11 10 0 6 2 10 4 10 3 0
8 -4 11 -10z m55 6 c0 -3 -4 -8 -10 -11 -5 -3 -10 -1 -10 4 0 6 5 11 10 11 6
0 10 -2 10 -4z m-504 -56 c26 0 43 -23 30 -42 -8 -14 -7 -20 7 -31 17 -12 16
-15 -12 -53 -27 -38 -80 -84 -96 -84 -3 0 -17 12 -30 27 l-23 28 3 -34 c1 -18
7 -36 13 -40 23 -14 -5 -33 -37 -26 -28 6 -33 4 -38 -14 -3 -12 -11 -21 -18
-21 -7 0 -15 -6 -18 -12 -5 -16 -37 7 -37 27 0 7 -7 18 -15 25 -21 18 -19 22
20 49 20 13 33 26 31 28 -2 3 -21 11 -41 17 l-37 13 36 23 c20 12 43 29 52 37
12 12 18 13 29 3 8 -7 15 -19 15 -27 0 -8 7 -13 18 -11 10 2 16 12 15 23 -1
11 -4 31 -5 45 -3 23 0 24 49 24 47 0 53 3 59 26 3 14 9 19 11 13 3 -7 11 -13
19 -13z m-146 6 c0 -3 -4 -8 -10 -11 -5 -3 -10 -1 -10 4 0 6 5 11 10 11 6 0
10 -2 10 -4z m406 -8 c5 -8 0 -9 -16 -5 l-22 6 21 -20 c22 -20 28 -39 12 -39
-9 0 -9 -55 0 -65 3 -3 12 1 19 10 18 21 52 20 48 -2 -2 -10 -10 -18 -18 -19
-38 -1 -62 -16 -57 -36 4 -13 1 -18 -8 -15 -7 3 -18 0 -24 -6 -8 -8 -11 -7
-11 5 0 9 4 19 8 22 8 5 9 48 1 71 -1 6 0 20 5 32 4 12 2 31 -3 42 -8 14 -8
21 2 24 21 9 36 7 43 -5z m278 -4 c10 -25 7 -34 -9 -34 -9 0 -15 9 -15 25 0
28 15 34 24 9z m-414 -19 c-10 -12 -10 -15 4 -15 9 0 16 5 16 10 0 6 4 10 9
10 9 0 24 -38 22 -57 -1 -7 5 -29 14 -50 9 -24 10 -32 2 -23 -6 8 -19 15 -27
15 -10 0 -14 10 -14 33 1 22 -5 36 -17 43 -15 7 -19 6 -19 -6 0 -8 -5 -15 -11
-15 -5 0 -9 8 -7 18 1 9 -1 23 -5 29 -6 9 -3 11 7 7 9 -3 16 -1 16 5 0 6 5 11
11 11 8 0 8 -5 -1 -15z m-60 -25 c0 -5 -8 -10 -17 -10 -15 0 -16 2 -3 10 19
12 20 12 20 0z m434 -24 c-5 -13 -9 -14 -20 -5 -11 9 -12 15 -3 26 15 17 32 2
23 -21z m-704 15 c0 -6 -4 -13 -10 -16 -5 -3 -10 1 -10 9 0 9 5 16 10 16 6 0
10 -4 10 -9z m311 -68 c5 -13 13 -21 19 -18 5 3 10 1 10 -4 0 -6 -7 -11 -15
-11 -8 0 -15 4 -15 8 0 5 -14 9 -30 10 -17 0 -28 -4 -25 -9 4 -5 1 -9 -4 -9
-15 0 -14 7 6 40 19 32 40 29 54 -7z m429 27 c0 -5 -4 -10 -10 -10 -5 0 -10 5
-10 10 0 6 5 10 10 10 6 0 10 -4 10 -10z m38 -35 c-3 -3 -9 2 -12 12 -6 14 -5
15 5 6 7 -7 10 -15 7 -18z m-38 -55 c0 -5 -7 -7 -15 -4 -8 4 -15 1 -15 -5 0
-6 5 -11 10 -11 13 0 13 -27 0 -35 -6 -3 -15 6 -21 22 -6 16 -13 22 -16 16 -3
-7 -11 -13 -19 -13 -8 0 -11 -6 -8 -15 4 -8 13 -15 21 -15 13 0 13 -2 0 -15
-9 -9 -26 -12 -43 -9 -23 4 -27 3 -16 -7 17 -18 15 -39 -3 -39 -8 0 -15 7 -15
15 0 9 -6 12 -16 8 -13 -5 -15 -3 -7 13 6 10 8 25 6 32 -5 13 9 17 21 5 19
-19 34 -8 40 28 4 25 12 39 21 39 8 0 15 6 15 14 0 12 4 12 30 0 17 -9 30 -19
30 -24z m-497 0 c-3 -12 1 -22 11 -26 9 -3 16 -12 16 -20 0 -8 9 -14 19 -14
10 0 22 -7 25 -16 4 -11 13 -14 31 -10 14 4 25 2 25 -4 0 -5 -6 -10 -14 -10
-7 0 -19 -7 -26 -15 -17 -20 -25 -19 -56 10 -18 17 -25 31 -21 45 4 14 0 23
-11 28 -30 11 -42 28 -29 41 18 18 36 13 30 -9z m367 1 c0 -5 3 -17 7 -26 5
-14 2 -16 -18 -10 -32 10 -33 11 -18 29 16 17 29 20 29 7z m-382 -90 c-9 -15
-9 -25 0 -45 19 -43 -8 -26 -35 22 -17 29 -16 31 6 25 10 -3 22 0 25 6 4 6 9
11 12 11 2 0 -1 -9 -8 -19z m289 -43 c-3 -8 -6 -5 -6 6 -1 11 2 17 5 13 3 -3
4 -12 1 -19z m-512 -8 c-27 -12 -35 -12 -35 0 0 6 12 10 28 9 24 0 25 -1 7 -9z
m500 -10 c3 -5 1 -10 -4 -10 -6 0 -11 5 -11 10 0 6 2 10 4 10 3 0 8 -4 11 -10z
m-142 -20 c18 -18 20 -22 7 -30 -21 -14 -58 -12 -63 3 -4 10 19 47 30 47 2 0
14 -9 26 -20z m-255 -24 c3 -28 2 -29 -28 -22 -18 3 -42 6 -54 6 -20 1 -19 2
8 26 37 33 70 29 74 -10z m422 24 c0 -5 -5 -10 -11 -10 -5 0 -7 5 -4 10 3 6 8
10 11 10 2 0 4 -4 4 -10z m-333 -18 c8 -5 8 -12 -2 -25 -11 -16 -13 -16 -19
-1 -12 32 -5 42 21 26z m263 -2 c0 -5 -2 -10 -4 -10 -3 0 -8 5 -11 10 -3 6 -1
10 4 10 6 0 11 -4 11 -10z m-223 -32 c-3 -8 -6 -5 -6 6 -1 11 2 17 5 13 3 -3
4 -12 1 -19z m90 -12 c-3 -8 2 -17 11 -21 13 -5 14 -8 3 -14 -16 -10 -55 24
-46 39 10 16 38 12 32 -4z m123 -1 c0 -8 -4 -15 -9 -15 -16 0 -22 -32 -9 -48
10 -12 5 -11 -19 3 -36 21 -43 38 -15 33 11 -2 18 4 20 20 4 24 32 31 32 7z
m-249 -24 c-14 -26 -72 -73 -80 -65 -5 5 76 84 87 84 1 0 -2 -9 -7 -19z m59 9
c0 -5 -5 -10 -11 -10 -5 0 -7 5 -4 10 3 6 8 10 11 10 2 0 4 -4 4 -10z m-5 -50
c0 -8 4 -21 9 -28 13 -21 9 -84 -5 -93 -26 -16 -51 -11 -44 10 3 12 0 21 -10
25 -8 3 -15 2 -15 -2 0 -4 -4 -13 -9 -20 -7 -11 -12 -11 -28 -1 -26 16 -57 5
-49 -18 4 -9 1 -20 -6 -24 -9 -6 -9 -11 0 -22 10 -12 9 -16 -4 -21 -22 -9 -44
11 -26 23 7 4 12 12 10 17 -11 39 114 178 155 172 12 -2 22 -10 22 -18z m151
-25 c4 -9 11 -15 18 -14 36 4 43 -4 26 -31 -6 -10 -13 -11 -17 -5 -5 6 -23 23
-41 38 -29 24 -31 27 -12 27 11 0 23 -7 26 -15z m-76 -97 c0 -11 -12 -10 -30
2 -12 7 -10 9 8 7 12 0 22 -5 22 -9z m-263 -93 c17 -18 11 -45 -11 -45 -20 0
-26 12 -19 38 6 26 10 27 30 7z m193 -34 c0 -6 -4 -13 -10 -16 -5 -3 -10 1
-10 9 0 9 5 16 10 16 6 0 10 -4 10 -9z m-50 -5 c0 -3 -4 -8 -10 -11 -5 -3 -10
-1 -10 4 0 6 5 11 10 11 6 0 10 -2 10 -4z m-225 -66 c3 -5 1 -10 -4 -10 -6 0
-11 5 -11 10 0 6 2 10 4 10 3 0 8 -4 11 -10z m69 -43 c7 -11 4 -22 -15 -41
-31 -33 -36 -32 -41 4 -3 17 -1 30 4 30 5 0 7 9 3 20 -5 17 -3 19 16 11 13 -4
27 -15 33 -24z m-88 -11 c-4 -26 -1 -36 12 -41 14 -5 14 -7 2 -15 -17 -11 -64
-13 -73 -3 -4 3 2 13 14 21 14 10 17 18 11 24 -13 13 6 48 25 48 9 0 11 -11 9
-34z m579 24 c3 -5 1 -10 -4 -10 -6 0 -11 5 -11 10 0 6 2 10 4 10 3 0 8 -4 11
-10z m-478 -76 c3 -10 -4 -26 -21 -42 -14 -15 -26 -21 -26 -15 0 6 7 18 15 27
10 9 11 17 5 21 -12 7 -4 25 11 25 5 0 12 -7 16 -16z m78 -3 c-3 -6 -14 -11
-23 -11 -13 0 -13 2 4 14 21 15 30 14 19 -3z m51 -28 c-1 -13 6 -18 22 -17 27
1 28 -8 3 -30 -17 -16 -19 -16 -25 0 -4 9 -9 14 -12 11 -3 -3 -1 -14 5 -26 14
-26 -1 -36 -29 -19 -11 7 -20 23 -20 36 0 15 -7 26 -20 29 -11 3 -20 9 -20 14
0 5 6 6 13 4 6 -3 26 -1 42 4 42 13 43 13 41 -6z m86 -35 c-6 -6 -7 0 -4 19 5
21 7 23 10 9 2 -10 0 -22 -6 -28z m72 26 c9 -24 7 -27 -9 -10 -17 17 -19 26
-6 26 5 0 12 -7 15 -16z m104 -30 c6 -11 11 -13 16 -5 10 16 29 14 23 -4 -4
-9 5 -20 25 -29 28 -15 32 -14 44 2 16 20 18 9 4 -19 -6 -10 -17 -19 -24 -19
-8 0 -42 -23 -76 -51 -57 -48 -62 -50 -67 -30 -8 31 -25 14 -18 -19 5 -22 2
-28 -14 -33 -17 -4 -21 0 -21 19 0 14 -7 27 -17 31 -10 3 -25 12 -33 18 -22
18 -50 15 -50 -7 0 -22 -9 -23 -38 -2 -20 14 -22 14 -22 0 0 -9 5 -16 10 -16
6 0 10 -3 10 -7 0 -5 -10 -8 -23 -8 -20 0 -23 5 -22 35 1 26 6 36 20 39 11 2
23 8 27 14 4 7 12 6 23 -3 13 -11 18 -11 24 -1 6 10 11 9 23 -3 8 -8 31 -18
51 -21 22 -4 34 -11 30 -18 -3 -6 -1 -7 5 -3 8 5 9 13 2 26 -13 24 12 47 29
26 9 -11 9 -15 -1 -20 -7 -3 1 -4 17 -3 17 1 28 7 25 12 -3 6 -8 9 -12 8 -4
-2 -13 7 -19 19 -9 17 -8 28 6 55 20 37 30 41 43 17z m262 -24 c0 -5 -4 -10
-9 -10 -6 0 -13 5 -16 10 -3 6 1 10 9 10 9 0 16 -4 16 -10z m-730 -17 c0 -10
7 -27 15 -37 16 -21 10 -65 -9 -78 -19 -13 -46 -9 -46 7 0 8 -4 15 -10 15 -13
0 -42 58 -35 70 4 6 10 8 15 5 5 -3 18 3 30 15 25 25 40 26 40 3z m330 -3 c0
-5 -5 -10 -11 -10 -5 0 -7 5 -4 10 3 6 8 10 11 10 2 0 4 -4 4 -10z m-144 -47
c-10 -10 -19 5 -10 18 6 11 8 11 12 0 2 -7 1 -15 -2 -18z m144 -3 c0 -5 -5
-10 -11 -10 -5 0 -7 5 -4 10 3 6 8 10 11 10 2 0 4 -4 4 -10z m-170 -16 c0 -7
3 -21 6 -31 5 -15 4 -15 -5 -3 -7 10 -11 11 -11 3 0 -7 -5 -13 -11 -13 -6 0
-8 9 -4 20 5 16 2 20 -19 20 -14 0 -26 4 -26 8 0 4 16 8 35 8 21 0 35 -5 35
-12z m-210 -64 c0 -5 -2 -10 -4 -10 -3 0 -8 5 -11 10 -3 6 -1 10 4 10 6 0 11
-4 11 -10z m197 -56 c-1 -1 -15 9 -32 23 -16 14 -22 23 -13 20 10 -4 21 -1 25
6 4 7 10 0 15 -18 4 -16 6 -30 5 -31z m-89 14 c10 -10 15 -10 21 0 7 11 9 10
14 -2 6 -15 0 -46 -9 -46 -2 0 -14 6 -25 13 -17 10 -23 9 -26 -1 -5 -13 -23
-7 -23 9 0 6 5 7 11 3 8 -4 9 0 4 15 -7 24 13 29 33 9z m202 -27 c0 -16 -30
-33 -46 -27 -16 6 -15 8 2 21 21 16 44 19 44 6z m-125 -51 c3 -5 2 -10 -4 -10
-5 0 -13 5 -16 10 -3 6 -2 10 4 10 5 0 13 -4 16 -10z m-105 -20 c0 -11 -2 -20
-4 -20 -2 0 -6 9 -9 20 -3 11 -1 20 4 20 5 0 9 -9 9 -20z m270 -6 c0 -14 -3
-14 -15 -4 -8 7 -15 14 -15 16 0 2 7 4 15 4 8 0 15 -7 15 -16z m-30 -52 c0
-15 -2 -15 -10 -2 -13 20 -13 33 0 25 6 -3 10 -14 10 -23z m-240 -12 c0 -5 -5
-10 -11 -10 -5 0 -7 5 -4 10 3 6 8 10 11 10 2 0 4 -4 4 -10z m-84 -75 l10 -45
-28 0 c-18 0 -28 5 -28 15 0 8 4 15 10 15 5 0 7 13 3 30 -10 51 21 37 33 -15z
m82 37 c9 -6 6 -12 -13 -20 -20 -9 -25 -9 -25 2 0 24 16 32 38 18z m147 -32
c-4 -6 1 -22 10 -36 9 -14 15 -33 13 -43 -2 -10 3 -25 10 -33 11 -13 10 -16
-5 -14 -11 0 -18 -5 -17 -16 2 -17 -10 -16 -54 5 -16 8 -28 8 -40 1 -23 -15
-122 2 -138 24 -15 21 -10 29 9 13 12 -9 17 -5 28 21 8 18 13 38 11 45 -1 6 2
14 8 18 5 3 10 0 11 -7 0 -7 4 -4 9 7 8 19 9 19 9 -1 1 -12 -5 -24 -13 -27
-20 -8 -8 -47 14 -47 46 0 80 13 80 31 0 11 -4 19 -10 19 -5 0 -10 7 -10 16 0
10 7 14 18 12 9 -2 16 -10 14 -18 -3 -13 14 -30 32 -30 4 0 5 16 2 35 -5 23
-3 35 4 35 6 0 8 -5 5 -10z m-114 -176 c5 -15 8 -28 7 -29 -2 -1 -16 10 -33
26 -29 28 -29 29 -7 29 15 0 26 -9 33 -26z m34 6 c-3 -5 -10 -10 -16 -10 -5 0
-9 5 -9 10 0 6 7 10 16 10 8 0 12 -4 9 -10z m180 -10 c3 -5 1 -10 -4 -10 -6 0
-11 5 -11 10 0 6 2 10 4 10 3 0 8 -4 11 -10z m-110 -44 c12 5 16 4 11 -4 -9
-15 -96 -13 -96 2 0 7 5 17 12 24 9 9 17 7 33 -8 14 -14 28 -18 40 -14z"/>
<path d="M55 2840 c-11 -17 5 -30 36 -30 35 0 40 25 7 34 -31 8 -36 8 -43 -4z"/>
<path d="M88 2783 c7 -3 16 -2 19 1 4 3 -2 6 -13 5 -11 0 -14 -3 -6 -6z"/>
<path d="M20 4620 c0 -5 5 -10 10 -10 6 0 10 5 10 10 0 6 -4 10 -10 10 -5 0
-10 -4 -10 -10z"/>
<path d="M530 4506 c0 -10 -9 -16 -24 -16 -26 0 -51 -24 -41 -40 4 -7 12 -7
26 1 21 11 39 3 66 -30 18 -21 29 -5 15 22 -6 12 -12 33 -14 46 -3 27 -28 42
-28 17z"/>
<path d="M5455 4480 c-21 -4 -41 -13 -43 -19 -2 -6 -9 -8 -15 -4 -14 8 10 -22
71 -90 49 -54 92 -141 116 -236 18 -69 60 -156 145 -296 68 -113 103 -188 101
-217 -3 -38 -1 -48 12 -45 6 1 17 -9 24 -23 12 -23 12 -25 -7 -28 -16 -3 -18
-6 -8 -18 9 -11 8 -15 -4 -20 -9 -3 -21 -3 -27 1 -6 4 -10 -4 -10 -19 0 -18
-4 -24 -15 -20 -8 4 -15 1 -15 -5 0 -12 -9 -25 -44 -63 -17 -18 -18 -33 -14
-130 3 -60 10 -114 16 -120 7 -7 33 1 84 27 84 43 221 126 226 137 2 5 8 8 14
8 5 0 17 8 26 17 21 20 159 123 166 123 3 0 7 -42 8 -92 l3 -93 33 -3 c20 -2
45 5 67 18 l35 22 0 151 0 152 -50 -53 c-28 -29 -55 -50 -61 -46 -8 4 -8 9 1
14 6 4 11 9 9 11 -4 8 13 49 21 49 5 0 12 9 15 21 4 11 20 25 36 31 l29 10 0
89 c0 85 -1 89 -22 89 -52 0 -169 74 -321 204 -31 27 -60 46 -63 43 -4 -3 32
-45 80 -93 78 -78 97 -104 80 -104 -12 0 -154 122 -235 202 -78 78 -133 124
-151 127 -5 1 -12 1 -17 1 -5 0 -19 17 -32 38 -46 77 -64 102 -77 102 -9 0
-11 7 -7 19 8 25 -38 116 -64 131 -22 11 -57 11 -116 0z m775 -671 c0 -6 -4
-7 -10 -4 -5 3 -10 11 -10 16 0 6 5 7 10 4 6 -3 10 -11 10 -16z m-100 -401
c-1 -18 -31 -53 -58 -67 -25 -13 -30 0 -7 23 8 8 15 21 15 30 0 12 13 20 43
25 4 0 7 -5 7 -11z"/>
<path d="M5940 4106 c0 -2 7 -9 15 -16 13 -11 14 -10 9 4 -5 14 -24 23 -24 12z"/>
<path d="M6130 4020 c13 -11 25 -20 28 -20 3 0 -3 9 -13 20 -10 11 -23 20 -28
20 -6 0 0 -9 13 -20z"/>
<path d="M4433 3923 c-15 -5 -17 -59 -3 -68 6 -3 10 -13 10 -22 0 -13 -3 -13
-15 -3 -13 10 -15 9 -15 -12 0 -50 87 -269 121 -302 5 -6 9 -26 9 -47 0 -48
16 -94 56 -154 63 -97 129 -151 249 -205 36 -16 65 -33 65 -37 0 -5 24 -33 53
-63 30 -30 59 -65 66 -77 6 -13 21 -23 31 -23 17 0 20 7 20 40 0 30 8 48 32
76 28 32 35 35 67 30 20 -4 77 -9 127 -12 l90 -5 53 35 c61 41 81 44 106 16
12 -13 29 -20 44 -18 29 3 29 -1 19 196 l-5 93 -59 28 c-32 16 -72 43 -88 60
-17 17 -33 31 -38 31 -5 0 -41 15 -81 34 -124 58 -144 66 -164 66 -10 0 -36 9
-58 20 -22 11 -52 20 -68 20 -28 0 -90 27 -139 61 -17 12 -43 19 -75 19 -26 0
-61 7 -78 16 -16 8 -52 20 -78 25 -34 6 -56 18 -75 39 -15 16 -32 30 -38 30
-6 0 -14 10 -17 21 -4 16 -11 20 -26 16 -18 -4 -66 36 -81 69 -3 6 -11 9 -17
7z"/>
<path d="M0 3385 c0 -23 2 -24 20 -15 11 6 20 13 20 15 0 2 -9 9 -20 15 -18 9
-20 8 -20 -15z"/>
<path d="M0 3334 c0 -17 22 -14 28 4 2 7 -3 12 -12 12 -9 0 -16 -7 -16 -16z"/>
<path d="M446 3221 c-6 -10 20 -61 31 -61 7 0 -7 53 -17 63 -4 5 -11 4 -14 -2z"/>
<path d="M740 3083 c1 -18 18 -34 38 -36 13 -1 21 -7 19 -16 -1 -9 10 -17 30
-21 17 -4 39 -15 48 -24 18 -18 35 -21 35 -7 0 14 -64 61 -83 61 -9 0 -19 9
-22 20 -4 11 -11 18 -16 15 -5 -4 -9 -1 -9 4 0 6 -9 11 -20 11 -11 0 -20 -3
-20 -7z"/>
<path d="M5398 3008 c-44 -22 -66 -27 -128 -28 -58 0 -83 -5 -110 -21 -19 -12
-37 -25 -40 -29 -3 -4 -20 -17 -38 -28 -37 -22 -41 -30 -20 -43 10 -7 8 -9 -7
-9 -18 -1 -17 -3 8 -21 15 -11 27 -27 27 -35 0 -21 -16 -17 -29 9 -11 22 -11
22 -5 -3 4 -14 13 -29 19 -35 8 -6 15 -43 17 -87 3 -44 11 -87 20 -100 19 -29
30 -81 29 -135 -1 -36 2 -42 19 -40 14 1 18 6 15 18 -3 9 -6 43 -8 77 -1 33
-5 58 -9 56 -4 -3 -5 2 -2 11 10 25 -5 85 -21 85 -9 0 -15 9 -15 23 0 18 2 19
10 7 5 -8 10 -10 10 -4 0 5 -5 15 -11 21 -6 6 -12 40 -13 75 -2 34 -5 70 -7
78 -10 34 323 102 354 71 6 -6 20 -11 32 -11 11 0 28 -12 38 -27 l18 -28 -4
35 c-3 22 0 43 9 55 16 21 19 65 5 65 -6 0 -17 -9 -25 -21 -18 -26 -32 -18
-41 20 -8 37 -25 37 -97 -1z"/>
<path d="M5705 2990 c-40 -42 -28 -45 15 -4 19 19 30 34 24 34 -5 0 -23 -13
-39 -30z"/>
<path d="M5671 2904 c0 -11 3 -14 6 -6 3 7 2 16 -1 19 -3 4 -6 -2 -5 -13z"/>
<path d="M5770 2910 c0 -5 6 -9 13 -7 7 1 13 -10 15 -25 2 -16 8 -28 13 -28
14 0 11 40 -5 56 -17 16 -36 19 -36 4z"/>
<path d="M5904 2895 c11 -29 34 -258 35 -348 1 -42 4 -56 13 -51 8 5 9 2 5 -9
-3 -9 -2 -19 3 -22 15 -9 12 86 -5 159 -8 35 -15 80 -14 98 1 53 -9 167 -16
178 -10 16 -28 11 -21 -5z m53 -347 c-3 -8 -6 -5 -6 6 -1 11 2 17 5 13 3 -3 4
-12 1 -19z"/>
<path d="M5400 2892 c0 -5 7 -17 15 -28 8 -10 15 -30 16 -44 1 -19 2 -20 6 -7
8 31 -7 87 -22 87 -8 0 -15 -4 -15 -8z"/>
<path d="M5990 2880 c0 -22 15 -27 26 -8 6 9 10 5 15 -12 6 -23 7 -22 8 8 1
28 -2 32 -24 32 -18 0 -25 -5 -25 -20z"/>
<path d="M5224 2879 c-3 -6 -1 -15 6 -19 16 -10 29 -84 29 -173 1 -54 8 -84
32 -140 18 -40 35 -83 40 -97 l7 -25 1 25 c1 14 -6 38 -14 54 -19 35 -55 170
-55 203 0 14 6 23 16 23 12 0 14 7 10 28 -3 15 -8 44 -12 65 -3 20 -10 37 -15
37 -5 0 -9 7 -9 15 0 17 -26 20 -36 4z"/>
<path d="M5202 2855 c0 -16 2 -22 5 -12 2 9 2 23 0 30 -3 6 -5 -1 -5 -18z"/>
<path d="M6166 2843 c5 -21 9 -89 9 -151 0 -61 3 -112 6 -112 10 0 17 98 13
185 -2 53 0 75 6 65 8 -13 10 -13 10 2 0 18 -26 48 -42 48 -7 0 -7 -13 -2 -37z"/>
<path d="M5140 2845 c7 -9 15 -13 17 -11 7 7 -7 26 -19 26 -6 0 -6 -6 2 -15z"/>
<path d="M5651 2834 c0 -11 3 -14 6 -6 3 7 2 16 -1 19 -3 4 -6 -2 -5 -13z"/>
<path d="M6031 2814 c0 -11 3 -14 6 -6 3 7 2 16 -1 19 -3 4 -6 -2 -5 -13z"/>
<path d="M5140 2811 c0 -5 6 -14 14 -20 11 -9 15 -8 20 4 3 9 2 13 -4 10 -6
-3 -10 -1 -10 4 0 6 -4 11 -10 11 -5 0 -10 -4 -10 -9z"/>
<path d="M5216 2720 c3 -57 7 -107 10 -109 7 -7 3 99 -6 159 -6 40 -7 27 -4
-50z"/>
<path d="M4883 2803 c-7 -2 -13 -13 -13 -24 0 -10 -4 -19 -10 -19 -5 0 -7 6
-4 14 3 8 -3 16 -16 19 -16 4 -23 -1 -31 -21 -6 -15 -13 -22 -17 -16 -4 5 -16
9 -27 9 -56 -4 -55 -3 -55 -47 1 -85 0 -108 -4 -108 -11 0 -37 53 -28 59 5 3
12 24 15 46 4 22 4 34 1 28 -3 -7 -15 -13 -27 -13 -40 -1 -58 -23 -51 -65 3
-21 12 -45 20 -52 15 -16 20 -48 5 -39 -5 3 -11 -12 -13 -34 -2 -22 0 -40 4
-40 5 0 7 -30 7 -67 -1 -56 -3 -62 -9 -33 -6 30 -8 31 -10 10 -5 -52 -29 108
-26 172 2 45 0 66 -7 61 -7 -4 -8 5 -4 25 5 23 3 32 -7 32 -19 0 -73 -29 -135
-72 -30 -21 -64 -38 -75 -38 -22 0 -60 -20 -39 -20 18 0 4 -28 -18 -35 -10 -4
-19 -11 -19 -16 0 -5 -6 -17 -12 -25 -7 -8 -17 -20 -23 -27 -5 -7 -15 -23 -21
-37 -35 -76 -39 -99 -39 -242 0 -93 -3 -143 -9 -137 -16 15 -26 11 -26 -11 0
-11 -7 -20 -15 -20 -9 0 -19 -8 -22 -17 -4 -10 -13 -24 -20 -31 -7 -7 -13 -20
-13 -28 0 -8 -4 -14 -9 -14 -18 0 -33 -67 -38 -165 -5 -113 5 -150 59 -211 32
-36 32 -38 32 -137 0 -81 -4 -102 -17 -112 -23 -16 -140 -26 -216 -19 -43 5
-61 3 -61 -5 0 -6 6 -11 14 -11 15 0 42 -28 34 -35 -3 -3 -22 8 -43 25 -37 29
-41 30 -142 30 -75 0 -102 -3 -97 -11 5 -9 -7 -10 -44 -7 -83 8 -81 -7 6 -41
45 -17 89 -31 99 -31 16 0 15 -1 -2 -13 -40 -27 -250 -67 -330 -64 -30 1 -46
-4 -63 -21 -12 -12 -27 -22 -33 -22 -8 0 -8 -4 1 -14 9 -12 6 -21 -19 -48 -16
-18 -41 -50 -55 -71 -37 -55 -72 -83 -150 -122 -121 -62 -162 -70 -346 -70
-91 0 -190 4 -220 8 l-55 8 38 -21 c21 -11 72 -26 115 -32 76 -11 120 -28 72
-28 -92 1 -219 23 -274 48 -33 15 -66 26 -73 24 -16 -3 -78 74 -102 129 -26
55 -26 38 -2 -71 29 -132 58 -182 166 -289 52 -52 95 -98 95 -102 0 -4 7 -15
16 -23 10 -10 11 -16 3 -16 -9 0 -8 -4 1 -15 7 -8 9 -15 5 -15 -4 0 0 -11 9
-25 9 -13 16 -32 16 -41 0 -18 -37 -75 -57 -87 -9 -5 -10 -14 -4 -25 5 -9 12
-54 16 -100 l7 -82 62 0 c63 0 106 18 106 44 0 17 71 74 255 206 34 25 85 72
113 105 27 33 99 110 160 171 83 83 119 113 142 116 27 4 30 2 24 -16 -4 -12
-11 -26 -16 -33 -12 -14 -2 -33 16 -33 8 0 19 -6 25 -14 9 -11 4 -23 -24 -56
-40 -48 -48 -41 -10 10 33 45 32 60 -2 28 -16 -14 -32 -24 -38 -22 -5 2 -21
-11 -35 -30 -22 -30 -90 -86 -105 -86 -3 0 21 28 54 63 34 34 61 65 61 69 0 5
-21 -8 -46 -27 -25 -19 -49 -35 -54 -35 -4 0 -27 -16 -50 -35 -23 -19 -37 -35
-30 -35 6 0 8 -5 5 -10 -4 -6 -10 -8 -14 -6 -4 3 -13 1 -21 -4 -11 -7 -11 -11
1 -23 13 -12 18 -13 34 -1 22 16 39 18 30 4 -9 -15 2 -12 33 7 26 17 26 17 13
0 -12 -15 -12 -17 2 -12 8 4 17 14 20 24 5 19 67 68 67 53 0 -14 -26 -33 -34
-25 -4 4 -4 0 0 -10 4 -13 -14 -37 -67 -93 -41 -41 -76 -81 -78 -87 -5 -16 34
18 73 63 66 75 115 122 125 119 6 -2 1 -16 -12 -31 -12 -14 -40 -49 -62 -77
-22 -28 -43 -51 -46 -51 -9 0 -121 -90 -131 -104 -4 -6 -10 -7 -14 -3 -4 3 -1
13 6 22 18 21 0 18 -30 -5 -14 -11 -33 -20 -42 -20 -9 0 -23 -3 -32 -6 -33
-13 -14 -19 48 -17 52 2 72 8 109 33 52 35 51 35 72 14 15 -15 14 -18 -6 -40
-25 -26 -49 -33 -29 -9 9 11 10 19 3 26 -8 8 -13 5 -17 -9 -4 -12 -22 -26 -41
-32 -18 -6 -46 -21 -61 -33 -15 -12 -42 -22 -58 -23 -17 0 -47 -4 -66 -7 -33
-6 -32 -5 14 17 27 14 58 27 68 30 21 5 16 26 -5 26 -7 0 -48 -20 -92 -45
l-80 -44 408 -1 c258 0 406 3 403 9 -4 5 -2 12 4 16 5 3 10 -1 10 -10 0 -14
66 -15 674 -15 628 1 675 2 679 18 4 16 5 16 6 0 1 -15 11 -18 52 -18 l51 0
-6 35 c-5 23 -2 46 9 69 18 37 17 64 -2 84 -7 7 -12 28 -12 45 2 30 2 31 6 5
2 -16 11 -28 19 -28 8 0 14 -8 14 -17 0 -10 6 -30 14 -44 12 -24 12 -30 -3
-51 -9 -14 -22 -23 -28 -21 -8 3 -13 -4 -13 -17 0 -12 4 -18 10 -15 7 4 9 -2
4 -19 -6 -25 -4 -26 35 -26 l41 0 -17 28 c-9 15 -19 29 -21 32 -1 2 -8 -2 -13
-10 -9 -12 -10 -12 -5 3 3 10 6 24 6 30 0 17 50 -34 51 -52 0 -9 5 -5 10 9 6
15 7 32 1 45 -10 23 -5 48 9 39 5 -3 9 -32 9 -65 l0 -59 31 0 c26 0 31 3 26
20 -3 11 1 27 9 34 18 18 18 50 0 65 -11 9 -33 108 -29 131 1 3 -6 52 -15 110
-15 95 -23 328 -13 373 5 25 21 1 21 -33 0 -20 2 -22 10 -10 8 12 10 11 10 -7
0 -12 -4 -33 -10 -47 -6 -16 -6 -27 0 -31 6 -4 7 -17 4 -31 -3 -13 -1 -30 5
-38 11 -14 10 -49 -4 -114 -5 -23 -3 -38 7 -50 8 -9 20 -36 27 -60 6 -23 16
-42 21 -42 12 0 13 26 3 33 -5 2 -3 2 4 1 15 -4 4 76 -28 211 -8 36 -9 50 0
53 6 2 11 15 11 29 0 37 9 23 19 -28 l9 -44 1 37 c1 20 6 38 12 40 9 3 9 9 0
26 -17 32 -20 583 -4 604 7 8 10 17 7 21 -7 6 -9 99 -3 113 7 15 -5 180 -13
169 -3 -6 -9 -84 -12 -174 -2 -90 -7 -165 -10 -168 -6 -6 2 -489 9 -519 3 -12
-1 -27 -9 -33 -11 -9 -15 -5 -19 21 -9 54 -41 163 -49 166 -5 2 -8 22 -8 45 0
31 3 38 10 27 5 -8 10 -10 10 -5 0 6 7 -1 15 -15 15 -26 19 -18 15 29 -1 14 2
21 9 17 6 -4 11 -3 11 3 0 5 -4 12 -9 16 -6 3 -8 14 -6 25 4 21 -9 27 -20 10
-3 -5 -12 -10 -18 -10 -8 0 -8 3 2 9 9 6 10 11 2 15 -6 4 -9 12 -6 17 4 5 1 9
-5 9 -6 0 -8 5 -5 11 4 6 13 8 19 6 7 -3 13 1 13 9 0 8 -4 14 -9 14 -5 0 -5
12 -2 28 4 15 8 86 10 157 2 112 11 310 14 310 1 0 4 18 6 40 3 22 10 43 17
47 9 6 9 10 -2 17 -8 5 -9 11 -3 14 5 4 8 22 6 42 -1 19 2 35 7 35 8 0 14 -51
11 -93 -3 -26 22 -15 26 11 2 12 7 20 12 17 5 -3 7 -12 4 -19 -3 -8 4 -16 15
-19 20 -5 30 -37 12 -37 -8 0 -11 -33 -14 -175 -1 -89 15 -750 19 -756 5 -8
11 -62 20 -174 4 -49 11 -103 16 -120 20 -64 26 -95 17 -100 -9 -6 -6 -85 8
-210 l8 -70 58 -3 c59 -3 63 -1 48 26 -12 24 -21 102 -11 102 5 0 11 -8 13
-17 13 -49 5 63 -9 132 -23 113 -32 177 -26 197 2 9 -3 27 -12 40 -11 15 -16
44 -16 91 0 49 -3 66 -11 61 -9 -5 -10 1 -5 20 3 14 2 26 -3 26 -14 0 -23 67
-23 167 0 144 28 161 59 37 10 -40 19 -60 21 -47 2 12 -3 41 -11 65 -8 24 -18
64 -22 90 -5 34 -11 45 -21 41 -15 -5 -13 19 7 97 6 24 5 36 -4 42 -9 6 -9 8
0 8 9 0 11 13 6 45 -4 31 -2 45 6 45 6 0 11 5 11 11 0 5 -5 7 -12 3 -7 -5 -8
-3 -3 6 12 19 15 81 4 74 -5 -3 -9 2 -9 10 0 9 4 16 9 16 12 0 6 65 -9 105 -8
21 -8 31 -1 33 6 2 11 12 11 22 0 11 11 22 30 29 24 8 30 7 30 -4 0 -8 -8 -11
-22 -8 -21 4 -20 3 3 -11 28 -16 28 -14 3 -120 -5 -21 -4 -27 5 -22 7 5 11 -2
11 -20 0 -22 -3 -25 -12 -16 -7 7 -17 12 -22 12 -6 0 2 -11 18 -23 l29 -23
-13 -65 c-11 -58 -11 -69 4 -101 9 -19 17 -44 17 -54 -1 -11 -3 -64 -6 -119
-2 -63 -1 -91 4 -75 9 24 9 24 10 -6 1 -17 -2 -34 -6 -38 -17 -16 -22 -193 -9
-256 5 -19 14 -53 21 -75 8 -22 15 -60 16 -85 2 -25 7 -48 13 -52 7 -5 5 -8
-4 -8 -8 0 -23 17 -32 37 -12 28 -17 33 -19 18 -1 -11 0 -24 1 -30 1 -5 2 -29
2 -52 0 -24 3 -43 7 -43 4 0 7 14 6 30 -1 17 2 30 7 30 4 0 8 -7 8 -16 0 -9 6
-22 14 -28 9 -7 15 -39 18 -94 4 -73 3 -82 -12 -77 -13 4 -17 -1 -17 -24 0
-21 6 -31 19 -35 16 -4 18 -11 14 -41 -4 -21 -8 -41 -11 -45 -8 -13 6 -40 20
-40 19 0 26 65 22 188 -3 56 -1 105 4 108 5 3 9 10 9 15 0 6 -3 8 -8 6 -4 -3
-8 23 -8 57 -1 34 -8 75 -16 91 -14 27 -34 104 -24 94 2 -2 13 -22 25 -44 l21
-40 0 37 c0 20 3 44 7 54 4 11 2 15 -4 11 -6 -4 -21 20 -36 56 -26 61 -27 67
-26 282 0 121 -3 234 -7 250 -11 50 -16 235 -6 235 5 0 12 11 14 25 3 14 2 25
-1 25 -7 0 -7 -2 -12 120 -1 47 1 91 5 98 4 7 3 12 -2 12 -17 0 -20 49 -5 62
8 6 42 12 76 12 62 1 62 1 60 -26 -1 -19 3 -28 13 -28 10 0 14 -12 14 -40 0
-30 -4 -40 -16 -40 -13 0 -15 -7 -9 -42 4 -24 11 -44 16 -46 5 -2 9 -11 9 -20
0 -15 -2 -15 -10 -2 -8 12 -10 11 -10 -7 0 -15 6 -23 18 -24 13 0 14 -2 2 -6
-20 -8 -30 -24 -30 -48 0 -23 16 -9 23 20 3 13 5 9 6 -12 1 -25 -3 -33 -15
-33 -15 0 -16 -13 -10 -132 4 -73 11 -151 17 -172 6 -22 8 -55 4 -74 -5 -25
-3 -32 6 -26 9 5 11 -13 5 -82 -4 -49 -9 -105 -11 -124 -3 -19 0 -50 6 -68 6
-18 10 -54 9 -80 -5 -108 0 -226 10 -236 5 -5 11 -37 11 -70 1 -34 3 -53 6
-44 2 10 8 18 11 18 10 0 10 63 0 156 -4 44 -9 157 -11 251 -1 94 -5 169 -9
166 -5 -2 -8 3 -8 12 0 9 4 14 9 11 5 -3 11 2 13 12 6 23 0 203 -8 222 -10 26
-19 143 -15 205 1 24 3 27 12 15 7 -11 8 -2 3 31 -9 69 -10 139 -1 139 4 0 7
5 7 11 0 5 -4 7 -10 4 -5 -3 -10 -1 -10 4 0 6 4 11 10 11 12 0 2 91 -15 145
-13 39 -13 40 13 47 22 6 97 -3 107 -14 9 -8 -9 -57 -19 -52 -6 3 -4 -1 5 -8
9 -7 20 -28 23 -46 4 -17 11 -32 14 -32 12 0 7 -85 -5 -98 -7 -7 -13 -21 -12
-30 0 -14 2 -13 9 3 6 14 9 -3 9 -52 1 -40 -2 -73 -6 -73 -10 0 -9 -132 3
-325 5 -82 8 -158 7 -167 -2 -11 2 -15 12 -12 10 4 12 12 4 31 -11 31 -12 46
0 39 5 -4 8 170 6 414 -3 354 -1 420 11 420 8 0 14 -4 14 -9 0 -6 12 -6 30 -1
28 8 67 6 77 -3 10 -10 11 -48 2 -88 -11 -48 -3 -111 12 -88 7 12 9 11 10 -1
1 -8 3 -19 4 -25 1 -5 5 -39 9 -75 9 -77 32 -179 41 -189 4 -3 4 14 0 39 -16
94 -22 165 -16 175 10 15 1 125 -10 125 -6 0 -9 27 -8 60 2 59 3 60 30 60 21
0 27 -4 23 -15 -4 -9 0 -15 10 -15 9 0 16 -4 16 -10 0 -5 -6 -7 -14 -4 -8 3
-19 -3 -25 -15 -19 -35 13 -68 60 -63 12 2 40 -85 33 -103 -4 -9 -2 -20 4 -24
7 -4 8 -29 2 -81 -5 -41 -14 -147 -20 -235 -6 -88 -14 -185 -16 -215 -3 -34
-1 -51 4 -45 6 6 13 55 16 110 13 196 16 231 28 273 8 31 8 46 0 54 -12 12 -4
41 10 32 6 -4 7 28 4 86 -5 80 -4 91 9 80 28 -23 17 9 -12 36 -23 22 -26 31
-24 77 3 57 6 66 21 51 8 -8 15 -49 19 -107 1 -5 5 -6 10 -3 13 9 31 -99 31
-188 -1 -45 -7 -124 -15 -176 -19 -121 -42 -320 -50 -430 -3 -47 -9 -112 -13
-145 -4 -33 -7 -129 -5 -214 2 -120 -1 -161 -13 -185 -14 -29 -14 -30 1 -11
17 21 18 18 15 -187 -1 -57 0 -58 26 -58 l27 0 -6 73 c-7 81 0 127 15 105 6
-9 8 0 4 26 -3 22 -10 42 -15 46 -13 7 -34 272 -27 325 4 22 9 85 11 140 3 55
7 129 11 165 3 36 5 82 4 104 0 21 6 62 14 90 8 28 18 92 21 141 3 50 9 119
12 155 3 36 5 75 4 88 0 12 4 22 9 22 6 0 10 7 10 16 0 8 5 12 10 9 6 -4 10 5
10 20 0 14 -4 24 -9 21 -5 -3 -13 7 -19 22 -16 41 -22 101 -11 107 5 4 9 -4 9
-17 1 -29 26 -65 32 -46 3 7 8 -25 11 -72 4 -47 11 -86 17 -88 6 -2 8 -8 5
-13 -4 -5 1 -6 9 -3 26 10 16 134 -10 134 -9 0 -14 11 -14 28 l1 27 19 -24 20
-23 0 111 c0 108 -5 126 -29 97 -7 -8 -25 -14 -41 -14 -16 1 -35 -4 -42 -9
-13 -11 -24 -11 -190 7 -54 6 -253 13 -442 15 -190 2 -362 8 -383 13 -64 17
-178 24 -206 13 -23 -9 -28 -7 -38 12 -11 20 -11 21 4 8 11 -9 17 -10 17 -2 0
6 9 20 20 31 11 11 16 20 12 20 -5 0 -9 14 -10 30 0 23 3 30 15 28 9 -2 18 3
20 10 3 6 0 12 -6 12 -14 0 -14 37 0 46 8 5 8 9 -1 14 -16 10 62 23 124 21 31
-1 59 5 74 15 13 9 32 14 42 11 10 -2 74 2 141 9 68 8 158 16 199 19 41 3 116
8 165 13 105 9 348 -2 420 -20 27 -7 64 -20 80 -30 50 -30 55 -25 55 47 0 59
-3 68 -27 90 -34 30 -53 32 -46 5 6 -24 -9 -26 -31 -5 -8 8 -20 15 -27 15 -7
0 -26 11 -43 23 -62 47 -79 50 -37 7 50 -51 53 -69 7 -42 -18 11 -48 23 -65
27 -17 4 -31 10 -31 15 0 11 -64 40 -87 40 -12 0 -7 -6 15 -17 31 -15 72 -57
72 -73 0 -5 -18 0 -40 11 -21 10 -48 19 -60 19 -11 0 -20 5 -20 11 0 5 -13 15
-30 20 -16 6 -30 15 -30 19 0 4 -15 10 -34 12 -43 5 -38 -14 8 -30 38 -14 72
-47 58 -56 -6 -3 -34 6 -64 20 -67 33 -86 41 -120 48 -38 8 -44 -10 -10 -28
42 -22 57 -42 36 -50 -12 -4 -15 -2 -10 9 4 12 -3 15 -35 15 -24 0 -38 4 -34
10 3 6 -3 10 -14 10 -12 0 -21 4 -21 8 0 9 -109 37 -116 30 -2 -3 17 -19 42
-37 26 -18 44 -35 40 -38 -3 -3 -11 -1 -18 5 -7 6 -15 10 -18 10 -20 0 -71 17
-101 32 -42 23 -138 40 -104 19 78 -48 96 -61 92 -65 -7 -7 -80 13 -154 42
-34 13 -74 24 -90 23 -26 -1 -25 -2 17 -21 25 -11 48 -26 52 -32 17 -27 -14
-24 -98 9 -49 19 -100 35 -114 35 -21 0 -16 -6 28 -31 28 -17 52 -35 52 -40 0
-16 -46 -10 -71 9 -44 33 -171 69 -155 43 4 -6 12 -11 18 -11 6 0 26 -13 45
-30 40 -35 39 -36 -29 -11 -29 11 -77 25 -107 31 -46 11 -51 14 -35 23 11 6
32 10 47 8 16 -1 42 3 58 9 23 10 27 15 18 26 -6 8 -21 14 -33 14 -11 0 -30 7
-40 15 -10 8 -22 12 -27 10 -4 -3 -10 -1 -14 5 -3 5 -19 10 -34 10 -20 0 -31
7 -39 25 -7 15 -8 25 -2 25 6 0 10 7 10 16 0 8 4 13 9 10 4 -3 6 -16 4 -29 -4
-22 -1 -23 46 -24 28 0 51 3 51 8 0 5 11 9 25 9 26 0 31 13 19 58 -6 21 -7 21
-20 5 -12 -16 -13 -14 -14 20 0 20 -4 37 -9 37 -10 0 -25 69 -17 77 3 3 10 -5
15 -18 6 -15 10 -18 10 -8 1 15 -25 54 -57 87 -9 10 -10 29 -6 65 4 29 8 54
10 56 4 4 8 -46 7 -76 -1 -7 4 -10 9 -7 6 4 8 1 6 -7 -6 -15 21 -69 34 -69 8
0 0 65 -12 95 -4 11 -13 33 -19 48 -14 37 -14 43 5 61 15 16 11 19 -13 9z
m-93 -88 c9 6 18 -20 21 -60 3 -39 -4 -140 -8 -115 -12 78 -15 90 -22 85 -14
-8 -43 44 -36 65 4 11 11 20 16 20 5 0 10 8 10 18 1 16 2 16 6 -1 2 -9 9 -15
13 -12z m-67 -204 c3 8 4 4 4 -8 -1 -13 -5 -23 -9 -23 -11 0 -28 36 -27 57 0
12 5 9 13 -11 9 -20 15 -25 19 -15z m-246 -3 c-3 -8 -6 -5 -6 6 -1 11 2 17 5
13 3 -3 4 -12 1 -19z m30 -10 c-3 -8 -6 -5 -6 6 -1 11 2 17 5 13 3 -3 4 -12 1
-19z m366 2 c3 -11 1 -18 -4 -14 -5 3 -9 12 -9 20 0 20 7 17 13 -6z m-103 -31
c0 -5 -4 -9 -10 -9 -5 0 -10 7 -10 16 0 8 5 12 10 9 6 -3 10 -10 10 -16z m117
-51 c-2 -13 -4 -5 -4 17 -1 22 1 32 4 23 2 -10 2 -28 0 -40z m-297 -14 c-2
-86 1 -119 10 -122 17 -6 60 -43 60 -52 0 -5 -27 1 -60 12 -33 12 -60 28 -60
35 0 7 6 12 13 11 9 -2 11 12 9 52 -4 69 6 126 19 113 5 -5 9 -27 9 -49z m140
19 c0 -26 -3 -34 -11 -26 -9 9 -3 63 7 63 2 0 4 -17 4 -37z m90 27 c0 -5 -4
-10 -10 -10 -5 0 -10 5 -10 10 0 6 5 10 10 10 6 0 10 -4 10 -10z m-55 -120
c29 -5 76 -31 105 -59 12 -12 11 -13 -10 -6 -14 4 -42 16 -63 27 -22 11 -52
20 -67 20 -16 1 -31 7 -34 15 -5 11 0 13 17 8 18 -6 20 -5 10 6 -7 7 -13 20
-13 29 0 9 5 5 13 -10 8 -16 24 -27 42 -30z m-398 -2 c-3 -8 -6 -5 -6 6 -1 11
2 17 5 13 3 -3 4 -12 1 -19z m266 -28 c4 0 6 4 3 8 -10 16 60 -3 85 -23 47
-37 39 -43 -23 -20 -35 13 -71 26 -80 29 -10 3 -18 11 -18 18 0 9 3 9 12 0 7
-7 16 -12 21 -12z m-85 -66 c12 -8 22 -20 22 -26 0 -15 -52 0 -75 23 -19 19
-19 19 6 19 13 0 35 -7 47 -16z m-84 -29 c11 -8 17 -17 14 -20 -8 -8 -58 5
-58 15 0 5 -8 11 -17 13 -10 3 -4 5 12 6 17 0 39 -6 49 -14z m432 -20 c20 -15
33 -29 31 -32 -3 -2 -29 3 -58 11 -134 37 -164 63 -61 53 36 -4 65 -14 88 -32z
m-515 -16 c13 -11 17 -18 9 -15 -8 3 -23 9 -32 12 -10 4 -18 10 -18 15 0 15
16 10 41 -12z m380 4 c27 -16 40 -43 20 -43 -22 0 -150 47 -144 53 13 14 96 7
124 -10z m-104 -36 l23 -22 -28 1 c-15 0 -37 6 -49 12 -12 7 -32 12 -45 12
-23 1 -23 1 -3 16 25 19 72 10 102 -19z m-337 -2 c13 -16 8 -18 -27 -9 -13 4
-23 10 -23 15 0 15 37 10 50 -6z m238 -21 c34 -24 26 -33 -20 -22 -24 6 -51
11 -60 12 -21 0 -24 12 -5 19 25 11 63 7 85 -9z m-308 -14 c0 -5 -7 -10 -15
-10 -8 0 -15 5 -15 10 0 6 7 10 15 10 8 0 15 -4 15 -10z m220 -25 c7 -9 11
-17 9 -20 -8 -7 -89 17 -89 26 0 15 67 10 80 -6z m-83 -30 c8 -9 13 -19 9 -22
-9 -9 -86 18 -80 28 9 15 54 10 71 -6z m-74 -40 c4 -8 3 -16 -1 -18 -11 -6
-63 18 -56 26 13 13 52 7 57 -8z m-63 -46 c0 -6 -9 -8 -22 -3 -29 8 -31 10
-23 23 7 13 45 -4 45 -20z m-60 -25 c0 -9 -7 -14 -17 -12 -25 5 -28 28 -4 28
12 0 21 -6 21 -16z m-50 -33 c0 -5 -7 -11 -15 -15 -15 -5 -20 5 -8 17 9 10 23
9 23 -2z m-40 -41 c0 -5 -5 -10 -11 -10 -5 0 -7 5 -4 10 3 6 8 10 11 10 2 0 4
-4 4 -10z m-20 -40 c0 -5 -5 -10 -11 -10 -5 0 -7 5 -4 10 3 6 8 10 11 10 2 0
4 -4 4 -10z m1110 -80 c0 -5 -7 -10 -16 -10 -8 0 -12 5 -9 10 3 6 10 10 16 10
5 0 9 -4 9 -10z m140 -4 c0 -24 -17 -28 -23 -6 -3 13 0 20 9 20 8 0 14 -6 14
-14z m172 -1 c4 -5 7 -35 7 -65 0 -30 -3 -49 -6 -41 -4 10 -12 6 -28 -13 l-23
-26 -6 25 c-4 14 -11 23 -16 20 -19 -12 -6 80 14 98 20 18 46 19 58 2z m-352
-5 c0 -5 -4 -10 -10 -10 -5 0 -10 5 -10 10 0 6 5 10 10 10 6 0 10 -4 10 -10z
m197 -22 c-3 -7 -5 -2 -5 12 0 14 2 19 5 13 2 -7 2 -19 0 -25z m53 -98 c0 -66
-4 -120 -9 -120 -5 0 -8 24 -7 53 1 28 -1 70 -5 92 -4 22 -3 44 2 50 5 5 9 17
9 27 0 10 2 18 5 18 3 0 5 -54 5 -120z m-275 90 c-3 -5 -1 -10 4 -10 6 0 11
-5 11 -10 0 -6 -8 -5 -20 2 -14 9 -16 14 -7 20 16 10 19 10 12 -2z m-108 -52
c-3 -7 -5 -2 -5 12 0 14 2 19 5 13 2 -7 2 -19 0 -25z m340 -20 c-3 -7 -5 -2
-5 12 0 14 2 19 5 13 2 -7 2 -19 0 -25z m513 22 c0 -5 -4 -10 -10 -10 -5 0
-10 5 -10 10 0 6 5 10 10 10 6 0 10 -4 10 -10z m-858 -52 c-8 -8 -9 -4 -5 13
4 13 8 18 11 10 2 -7 -1 -18 -6 -23z m168 17 c0 -8 -4 -15 -10 -15 -5 0 -10 7
-10 15 0 8 5 15 10 15 6 0 10 -7 10 -15z m-6 -67 c5 -25 3 -38 -4 -38 -6 0 -9
4 -6 9 4 5 1 11 -5 13 -6 2 -8 14 -4 31 9 34 10 32 19 -15z m-109 -15 c-4 -27
-8 -79 -10 -116 -5 -106 -14 -90 -13 25 0 111 4 138 20 138 6 0 8 -17 3 -47z
m303 -20 l1 -38 -15 28 c-9 16 -13 35 -10 43 10 25 23 7 24 -33z m-223 -46 c4
5 4 -5 0 -22 -10 -35 -13 -165 -4 -165 5 0 -2 -56 -16 -132 -4 -21 -12 -38
-17 -38 -12 0 0 -40 19 -61 12 -14 11 -16 -9 -15 -13 1 -29 -4 -37 -12 -9 -8
-17 -9 -25 -3 -7 6 -17 6 -26 1 -8 -5 -18 -6 -24 -3 -5 4 -7 -2 -3 -13 7 -18
6 -18 -9 1 -8 11 -20 19 -25 17 -5 -1 -9 3 -9 9 0 6 -6 9 -14 6 -8 -3 -24 5
-36 18 -18 19 -21 29 -14 57 4 18 8 38 8 43 1 6 6 10 11 10 20 0 35 17 35 38
0 18 -2 20 -11 7 -9 -12 -10 -12 -5 3 3 10 7 37 8 60 l1 42 7 -45 c4 -25 8
-37 8 -27 3 31 27 97 35 97 10 0 5 -53 -7 -61 -5 -4 -10 -25 -12 -48 -3 -38
-1 -41 20 -41 14 0 31 -3 40 -6 13 -5 16 1 16 31 0 23 4 34 11 30 6 -4 8 -20
4 -38 -5 -24 -4 -28 4 -17 6 8 11 31 11 50 0 19 7 56 15 83 11 38 12 47 1 47
-15 0 -29 52 -20 75 5 12 9 13 20 4 12 -9 14 -5 15 27 l1 39 12 -28 c7 -15 16
-24 21 -20z m-115 16 c-1 -10 -26 -43 -32 -43 -12 0 -15 39 -4 44 18 7 36 7
36 -1z m316 -18 c-3 -8 -1 -15 3 -15 5 0 12 6 14 13 3 6 6 2 6 -10 1 -13 -3
-23 -9 -23 -6 0 -6 -9 0 -26 13 -34 13 -136 -1 -259 -18 -158 -29 -196 -23
-80 3 56 0 160 -6 233 -10 131 -7 182 12 182 6 0 8 -7 4 -15z m-433 -15 c-3
-12 -8 -19 -11 -16 -5 6 5 36 12 36 2 0 2 -9 -1 -20z m-88 -62 c5 -50 4 -68
-5 -68 -7 0 -10 -7 -6 -15 3 -8 1 -25 -4 -37 -7 -20 -9 -17 -9 17 -1 45 10
177 15 173 1 -2 5 -33 9 -70z m142 31 c2 -30 1 -31 -6 -9 l-8 25 -5 -30 c-4
-25 -5 -22 -7 13 -1 53 23 54 26 1z m433 1 c0 -5 -4 -10 -10 -10 -5 0 -10 5
-10 10 0 6 5 10 10 10 6 0 10 -4 10 -10z m817 -22 c-3 -8 -6 -5 -6 6 -1 11 2
17 5 13 3 -3 4 -12 1 -19z m-817 -43 c0 -8 -4 -15 -10 -15 -5 0 -10 7 -10 15
0 8 5 15 10 15 6 0 10 -7 10 -15z m-760 -46 c0 -10 -4 -19 -10 -19 -5 0 -10
12 -10 26 0 14 4 23 10 19 6 -3 10 -15 10 -26z m120 15 c0 -8 -5 -12 -10 -9
-6 4 -8 11 -5 16 9 14 15 11 15 -7z m644 -52 c-3 -26 -7 -48 -8 -50 -7 -6 -17
88 -11 98 14 23 25 -4 19 -48z m-1359 -32 c3 -5 1 -10 -4 -10 -6 0 -11 5 -11
10 0 6 2 10 4 10 3 0 8 -4 11 -10z m350 -108 c-10 -83 -18 -53 -9 35 5 46 10
66 12 48 2 -16 1 -54 -3 -83z m-275 90 c0 -19 -222 -72 -330 -79 -103 -7 -110
-8 -110 -14 0 -4 -11 -10 -24 -13 -13 -3 -32 -9 -43 -12 -10 -3 9 8 42 25 35
19 86 35 125 41 36 5 92 18 124 30 69 24 80 25 46 5 l-25 -15 27 6 c15 3 51
12 80 19 64 16 88 18 88 7z m649 -74 c-1 -46 -4 -73 -6 -60 -2 12 -12 22 -21
22 -12 0 -13 3 -5 8 6 4 15 31 19 60 3 28 8 52 10 52 2 0 3 -37 3 -82z m268
50 c-3 -8 -6 -5 -6 6 -1 11 2 17 5 13 3 -3 4 -12 1 -19z m-1310 -14 c-3 -3
-12 -4 -19 -1 -8 3 -5 6 6 6 11 1 17 -2 13 -5z m937 -184 c3 -42 1 -82 -4 -90
-7 -11 -10 -6 -10 18 0 17 -3 32 -7 32 -5 0 -8 13 -9 30 -1 16 2 27 7 25 4 -3
4 9 -1 27 -6 17 -7 50 -3 72 l7 41 8 -40 c4 -22 9 -74 12 -115z m-811 114 c12
-13 -3 -21 -28 -17 -13 3 -22 9 -19 14 6 10 38 12 47 3z m-300 -34 c-67 -40
-113 -60 -143 -60 -16 0 -30 -4 -30 -10 0 -5 -7 -10 -15 -10 -9 0 -28 -20 -43
-45 -22 -38 -33 -47 -64 -52 -21 -3 -38 -10 -38 -16 0 -6 -3 -7 -6 -4 -4 3
-16 0 -28 -8 -11 -8 -27 -15 -36 -15 -8 1 0 7 18 15 24 10 38 27 53 62 29 69
47 85 89 82 19 -2 44 2 55 8 11 6 48 17 82 23 35 7 60 16 57 21 -2 4 10 13 28
18 51 14 56 13 21 -9z m-154 -4 c-12 -10 -59 -15 -59 -6 0 5 14 10 32 10 17 0
29 -2 27 -4z m353 -5 c-8 -4 -13 -12 -12 -16 2 -10 -56 -45 -75 -45 -7 0 -17
-5 -20 -10 -9 -15 56 -5 93 14 17 9 43 16 57 16 17 0 24 4 19 11 -5 9 4 10 31
5 24 -5 35 -4 31 3 -7 11 57 26 72 17 6 -3 12 -1 14 6 3 9 8 9 20 -2 32 -30
-23 -46 -60 -17 -19 15 -24 3 -10 -27 15 -34 -2 -48 -49 -40 -28 5 -31 4 -26
-14 3 -13 11 -18 19 -15 8 3 14 0 14 -5 0 -13 -36 -25 -50 -17 -5 3 -10 1 -10
-4 0 -6 -9 -11 -19 -11 -11 0 -23 -4 -26 -10 -8 -12 10 -13 50 -2 17 5 41 5
55 1 16 -4 19 -7 8 -8 -12 -1 -18 -9 -18 -23 0 -21 0 -21 15 -2 12 16 14 16
15 3 0 -22 -32 -49 -37 -31 -3 6 -18 12 -33 12 -16 0 -32 4 -35 10 -7 11 -53
3 -120 -21 -42 -16 -50 -17 -57 -4 -5 8 -16 11 -24 8 -13 -5 -15 -1 -9 18 4
13 13 34 21 46 21 34 17 37 -16 13 -17 -12 -37 -20 -44 -17 -8 3 -23 -1 -34
-9 -12 -8 -25 -13 -29 -12 -4 1 -21 -5 -38 -14 -16 -8 -51 -18 -77 -22 -84
-12 -72 27 28 93 35 22 69 41 76 41 7 0 32 11 56 25 36 20 54 24 109 21 58 -2
68 0 89 21 13 13 29 23 36 23 10 0 10 -2 0 -9z m798 -11 c0 -5 -4 -10 -10 -10
-5 0 -10 5 -10 10 0 6 5 10 10 10 6 0 10 -4 10 -10z m-173 -32 c-3 -8 -6 -5
-6 6 -1 11 2 17 5 13 3 -3 4 -12 1 -19z m230 -30 c-2 -13 -4 -5 -4 17 -1 22 1
32 4 23 2 -10 2 -28 0 -40z m1270 0 c-3 -7 -5 -2 -5 12 0 14 2 19 5 13 2 -7 2
-19 0 -25z m-1360 -35 c-3 -10 -5 -2 -5 17 0 19 2 27 5 18 2 -10 2 -26 0 -35z
m-140 -10 c-3 -10 -5 -4 -5 12 0 17 2 24 5 18 2 -7 2 -21 0 -30z m800 -15 c-3
-8 -6 -5 -6 6 -1 11 2 17 5 13 3 -3 4 -12 1 -19z m-797 -45 c-11 -17 -11 -17
-6 0 3 10 6 24 7 30 0 9 2 9 5 0 3 -7 0 -20 -6 -30z m226 -30 c-10 -11 -26 18
-25 47 0 24 1 23 16 -7 9 -18 13 -36 9 -40z m-89 -38 c-5 -10 -10 -43 -10 -73
0 -34 -3 -49 -8 -40 -12 17 -8 108 3 108 5 0 7 21 4 48 l-6 47 14 -35 c9 -25
10 -41 3 -55z m294 -7 c-1 -46 -5 -99 -10 -118 -8 -33 -9 -32 -10 20 -1 67 10
192 17 186 2 -3 4 -43 3 -88z m256 85 c-4 -3 -2 -12 4 -19 5 -7 13 -75 16
-151 4 -112 2 -142 -10 -157 -13 -18 -15 -17 -30 30 -9 27 -17 80 -19 117 -1
38 -6 71 -10 73 -5 3 -8 20 -7 37 0 27 2 29 9 12 6 -16 9 -12 12 20 l5 40 1
-47 c4 -88 32 -113 31 -25 0 38 -3 47 -9 32 -7 -17 -9 -15 -9 13 -1 18 4 32
11 32 6 0 8 -3 5 -7z m-130 -50 c-3 -10 -5 -4 -5 12 0 17 2 24 5 18 2 -7 2
-21 0 -30z m50 15 c-3 -8 -6 -5 -6 6 -1 11 2 17 5 13 3 -3 4 -12 1 -19z m-331
-58 c0 -39 -3 -70 -8 -70 -10 0 -11 124 -1 133 3 4 7 7 7 7 1 0 1 -32 2 -70z
m-279 3 c-3 -10 -5 -2 -5 17 0 19 2 27 5 18 2 -10 2 -26 0 -35z m606 -50 c4
-50 2 -63 -9 -63 -8 0 -14 -7 -14 -16 0 -14 3 -14 15 -4 13 11 15 6 15 -39 0
-28 -4 -51 -10 -51 -5 0 -10 -8 -10 -17 0 -15 2 -16 10 -3 8 13 10 13 10 -1 0
-9 2 -32 5 -50 l5 -34 -15 34 c-9 18 -18 31 -21 28 -3 -3 -1 -14 5 -25 13 -25
14 -69 2 -76 -8 -5 -24 81 -21 114 0 8 1 64 0 123 0 70 4 106 10 102 6 -3 10
1 10 9 0 19 -11 21 -27 5 -9 -9 -11 -7 -9 5 1 10 9 22 17 27 8 5 10 9 6 9 -5
0 -5 5 -1 12 11 17 20 -16 27 -89z m-1853 80 c-8 -3 -32 -14 -52 -23 -21 -10
-38 -15 -38 -10 0 11 62 40 85 39 14 0 16 -2 5 -6z m710 -2 c0 -4 -12 -7 -26
-5 -38 4 -42 14 -6 14 18 0 32 -4 32 -9z m-289 -42 c13 -12 23 -25 21 -30 -1
-5 5 -12 14 -16 13 -5 13 -7 2 -14 -9 -6 -3 -9 17 -10 26 0 27 -2 10 -9 -11
-5 -53 -14 -93 -20 -103 -17 -82 -24 28 -10 51 6 95 8 98 5 3 -3 -1 -5 -9 -5
-12 0 -12 -2 0 -9 15 -10 51 15 51 36 0 8 12 18 26 23 31 12 47 13 40 2 -3 -5
9 -6 27 -4 31 4 31 4 12 -12 -15 -11 -16 -15 -5 -16 32 0 60 13 61 29 0 9 5 1
10 -17 10 -33 -4 -78 -20 -67 -5 2 -11 -4 -14 -15 -7 -27 -37 -26 -37 1 0 16
-5 20 -19 16 -13 -3 -21 1 -24 12 -3 11 -5 9 -6 -6 -1 -14 5 -23 13 -23 7 0
19 -7 26 -15 7 -8 21 -15 31 -15 11 0 19 -4 19 -9 0 -9 -30 -16 -122 -27 -52
-6 -57 -4 -69 17 -7 13 -12 30 -11 37 2 6 -2 12 -8 12 -5 0 -10 -4 -10 -10 0
-5 -11 -10 -25 -10 -14 0 -25 -4 -25 -10 0 -21 -130 -4 -154 20 -8 8 -5 17 14
32 l25 21 -36 -7 c-44 -8 -99 10 -99 33 0 34 30 62 63 60 21 -2 46 7 71 24 47
32 75 34 107 6z m-538 -25 c3 -3 -4 -16 -17 -28 -12 -11 -28 -30 -35 -41 -11
-18 -11 -18 -5 5 7 26 35 69 45 70 3 0 8 -3 12 -6z m1754 -61 c-3 -10 -5 -4
-5 12 0 17 2 24 5 18 2 -7 2 -21 0 -30z m-707 -32 c-11 -21 -30 -37 -30 -25 0
8 30 44 37 44 2 0 -1 -9 -7 -19z m445 -32 c-5 -16 -4 -19 6 -14 9 6 11 3 6 -9
-4 -10 -8 -45 -8 -79 -1 -34 -4 -48 -5 -32 -2 17 -9 54 -15 82 -10 52 -7 73
12 73 6 0 7 -9 4 -21z m254 -44 l0 -20 -9 20 c-5 11 -9 29 -9 40 l0 20 9 -20
c5 -11 9 -29 9 -40z m-1689 38 c0 -4 -17 -24 -37 -44 -21 -20 -46 -47 -55 -61
-14 -21 -161 -108 -182 -108 -25 0 10 42 101 124 89 81 112 96 140 96 18 0 33
-3 33 -7z m1969 -111 c1 -26 -3 -41 -9 -37 -5 3 -10 26 -10 50 0 24 -4 45 -10
47 -5 2 -7 14 -3 28 6 24 7 23 19 -10 7 -19 13 -54 13 -78z m368 61 c-3 -10
-5 -2 -5 17 0 19 2 27 5 18 2 -10 2 -26 0 -35z m-655 -60 c8 -10 6 -13 -6 -13
-12 0 -16 9 -15 33 1 21 3 25 6 12 3 -11 10 -26 15 -32z m30 15 c-9 -9 -12 -7
-12 12 0 19 3 21 12 12 9 -9 9 -15 0 -24z m-925 16 c-3 -3 -12 -4 -19 -1 -8 3
-5 6 6 6 11 1 17 -2 13 -5z m-107 -14 c0 -5 -9 -10 -19 -10 -11 0 -23 5 -26
10 -4 6 5 10 19 10 14 0 26 -4 26 -10z m96 0 c8 0 14 -7 14 -15 0 -8 -7 -15
-15 -15 -8 0 -15 4 -15 8 0 5 -15 7 -32 5 -32 -4 -32 -3 -13 12 11 8 26 13 33
10 8 -3 20 -5 28 -5z m642 -80 c-1 -33 -6 -60 -10 -60 -9 0 -11 81 -2 104 11
30 15 16 12 -44z m-1105 20 c-6 -22 -19 -27 -25 -9 -2 6 -24 -30 -48 -80 -24
-50 -50 -91 -57 -91 -7 0 -13 -4 -13 -10 0 -5 11 -10 24 -10 16 0 31 12 50 40
27 41 66 70 66 50 0 -28 -26 -60 -89 -112 -11 -9 -11 -13 -2 -16 7 -2 20 3 30
12 10 9 25 14 34 11 15 -6 89 34 102 55 3 5 14 10 23 10 14 0 14 -3 -3 -19
-34 -34 -118 -71 -132 -59 -9 7 -13 7 -13 0 0 -6 5 -14 11 -18 7 -4 1 -15 -17
-30 -39 -31 -56 -30 -20 2 15 14 25 28 22 31 -3 4 -21 -8 -39 -25 -36 -35 -61
-44 -33 -13 10 11 16 25 14 32 -2 7 -17 -7 -34 -30 -52 -75 -60 -84 -73 -77
-8 5 -6 15 9 33 36 46 19 58 -31 22 -47 -33 -33 -5 26 52 30 30 55 60 55 67 0
7 5 10 10 7 6 -3 13 2 16 12 3 10 10 28 16 40 6 11 7 26 4 31 -4 6 14 31 39
56 60 58 87 71 78 36z m55 -39 c-7 -9 -14 -18 -15 -20 -2 -2 -3 8 -3 22 0 20
4 25 15 21 13 -5 13 -9 3 -23z m1069 -8 c-3 -10 -5 -4 -5 12 0 17 2 24 5 18 2
-7 2 -21 0 -30z m243 -17 c0 -5 -7 -3 -15 4 -8 7 -15 22 -15 34 1 20 2 20 15
-4 8 -14 14 -29 15 -34z m275 -6 c8 -13 11 -27 7 -30 -7 -4 -8 -25 -2 -32 1
-2 3 -10 5 -19 1 -9 6 -27 9 -40 3 -13 3 -18 0 -11 -3 6 -10 10 -15 6 -5 -3
-9 0 -9 5 0 6 -7 11 -16 11 -13 0 -14 3 -5 13 6 8 8 16 6 19 -3 3 -8 36 -10
74 -4 51 -2 64 5 49 6 -11 17 -31 25 -45z m424 27 c0 -21 -1 -21 -9 -2 -12 28
-12 37 0 30 6 -3 10 -16 9 -28z m-500 -32 c1 -17 -1 -17 -9 -5 -5 8 -9 26 -9
40 0 23 1 23 9 5 5 -11 9 -29 9 -40z m-1469 20 c0 -18 12 -19 27 -4 6 6 16 8
23 4 8 -5 5 -12 -9 -22 -23 -16 -36 -12 -51 18 -7 13 -7 19 0 19 5 0 10 -7 10
-15z m1650 -69 c0 -49 -19 -16 -25 39 -4 49 -4 50 10 20 8 -16 14 -43 15 -59z
m104 47 c9 -57 7 -95 -4 -88 -5 3 -10 22 -10 41 0 19 -4 33 -8 30 -5 -3 -6 8
-4 25 6 40 18 36 26 -8z m-1614 1 c0 -2 -7 -4 -15 -4 -8 0 -15 4 -15 10 0 5 7
7 15 4 8 -4 15 -8 15 -10z m-205 -4 c3 -6 -1 -7 -9 -4 -18 7 -21 14 -7 14 6 0
13 -4 16 -10z m1075 -14 c0 -3 -4 -8 -10 -11 -5 -3 -10 -1 -10 4 0 6 5 11 10
11 6 0 10 -2 10 -4z m340 -6 c0 -5 -4 -10 -10 -10 -5 0 -10 5 -10 10 0 6 5 10
10 10 6 0 10 -4 10 -10z m570 -25 c0 -5 -5 -3 -10 5 -5 8 -10 20 -10 25 0 6 5
3 10 -5 5 -8 10 -19 10 -25z m-1877 18 c-7 -2 -21 -2 -30 0 -10 3 -4 5 12 5
17 0 24 -2 18 -5z m-102 -63 c-23 -20 -41 -26 -41 -14 0 11 34 33 50 33 10 0
8 -6 -9 -19z m68 -57 c-15 -23 -69 -67 -75 -61 -9 10 8 34 43 61 39 29 51 30
32 0z m1598 5 c-3 -8 -6 -5 -6 6 -1 11 2 17 5 13 3 -3 4 -12 1 -19z m310 -10
c-3 -8 -6 -5 -6 6 -1 11 2 17 5 13 3 -3 4 -12 1 -19z m-334 -19 c-8 -8 -13 -7
-18 2 -5 8 -4 10 3 5 7 -4 12 -2 12 5 0 7 3 9 7 6 4 -4 2 -12 -4 -18z m-190
-57 c10 -31 21 -63 24 -71 3 -8 0 -12 -7 -9 -7 2 -21 31 -31 63 -21 67 -22 75
-11 75 4 0 15 -26 25 -58z m-1473 44 c0 -2 -24 -16 -52 -31 -39 -20 -49 -23
-38 -10 19 23 90 55 90 41z m690 -66 c0 -16 -4 -30 -10 -30 -9 0 -14 14 -11
33 0 4 -4 7 -10 7 -5 0 -7 5 -4 10 14 22 35 10 35 -20z m1011 6 c5 3 8 -7 8
-23 -1 -17 -3 -21 -6 -10 -2 9 -9 17 -14 17 -5 0 -9 8 -8 18 0 10 3 12 6 4 2
-6 9 -10 14 -6z m-261 -54 c0 -7 -4 -10 -10 -7 -5 3 -10 16 -10 28 0 18 2 19
10 7 5 -8 10 -21 10 -28z"/>
<path d="M4760 2682 c0 -5 7 -17 15 -28 15 -19 20 -8 9 20 -6 17 -24 22 -24 8z"/>
<path d="M5096 1415 c4 -8 8 -15 10 -15 2 0 4 7 4 15 0 8 -4 15 -10 15 -5 0
-7 -7 -4 -15z"/>
<path d="M3880 1180 c-18 -12 -2 -12 25 0 13 6 15 9 5 9 -8 0 -22 -4 -30 -9z"/>
<path d="M3810 1160 c-13 -9 -13 -10 0 -10 8 0 22 5 30 10 13 9 13 10 0 10 -8
0 -22 -5 -30 -10z"/>
<path d="M3560 965 c-19 -7 -28 -14 -19 -14 9 -1 32 6 50 14 43 18 16 18 -31
0z"/>
<path d="M3475 940 l-20 -9 20 0 c11 0 27 4 35 9 13 9 13 10 0 9 -8 0 -24 -4
-35 -9z"/>
<path d="M3415 915 c-16 -8 -23 -14 -14 -15 8 0 24 7 35 15 23 18 18 18 -21 0z"/>
<path d="M5050 671 c0 -17 18 -21 24 -6 3 9 0 15 -9 15 -8 0 -15 -4 -15 -9z"/>
<path d="M3367 723 c-10 -10 -8 -23 4 -23 5 0 8 4 5 9 -4 5 0 12 6 14 7 3 8 6
2 6 -6 1 -14 -2 -17 -6z"/>
<path d="M3538 723 c7 -3 16 -2 19 1 4 3 -2 6 -13 5 -11 0 -14 -3 -6 -6z"/>
<path d="M3658 653 c12 -2 22 -8 22 -12 0 -4 6 -8 13 -9 6 -1 26 -4 42 -7 29
-5 29 -5 -5 11 -19 9 -48 17 -65 19 -16 1 -20 0 -7 -2z"/>
<path d="M3640 609 c0 -3 7 -12 15 -19 15 -13 39 -5 30 11 -8 13 19 11 32 -2
6 -6 19 -9 29 -6 16 4 15 5 -3 6 -13 0 -23 6 -23 11 0 6 -17 10 -40 8 -22 -1
-40 -5 -40 -9z"/>
<path d="M726 2785 c-3 -8 -1 -15 4 -15 6 0 10 7 10 15 0 8 -2 15 -4 15 -2 0
-6 -7 -10 -15z"/>
<path d="M6277 2753 c-4 -3 -7 -27 -6 -52 1 -42 1 -44 9 -17 5 16 6 34 3 39
-3 6 -1 7 5 3 8 -5 12 0 12 13 0 21 -11 27 -23 14z"/>
<path d="M5553 2665 c0 -22 2 -30 4 -17 2 12 2 30 0 40 -3 9 -5 -1 -4 -23z"/>
<path d="M6295 2685 c-4 -11 -11 -29 -17 -39 -8 -15 -7 -22 5 -31 21 -15 32
-86 18 -114 -9 -17 -9 -21 3 -21 7 0 17 -12 21 -27 4 -16 10 -22 12 -15 4 10
9 8 20 -7 26 -39 43 -26 42 32 -1 28 -6 61 -11 72 -5 13 -7 -2 -4 -45 4 -58 3
-63 -9 -45 -8 11 -20 26 -26 34 -11 13 -30 139 -23 152 2 4 -2 22 -10 40 -13
30 -15 32 -21 14z"/>
<path d="M6350 2674 c0 -10 5 -26 10 -34 8 -11 9 -7 4 15 -8 37 -14 45 -14 19z"/>
<path d="M5668 2653 c-10 -21 -8 -73 2 -73 7 0 10 7 7 15 -4 8 -2 17 3 20 13
8 13 45 1 45 -6 0 -11 -3 -13 -7z"/>
<path d="M4961 2643 c1 -4 1 -15 0 -23 -1 -13 -2 -13 -11 0 -5 8 -10 11 -10 5
1 -11 25 -45 33 -45 2 0 8 7 11 16 4 9 2 13 -5 8 -7 -4 -9 0 -5 14 4 11 2 23
-4 27 -6 4 -10 3 -9 -2z"/>
<path d="M700 2609 c0 -5 5 -7 10 -4 6 3 10 8 10 11 0 2 -4 4 -10 4 -5 0 -10
-5 -10 -11z"/>
<path d="M740 2610 c0 -5 7 -10 15 -10 8 0 15 5 15 10 0 6 -7 10 -15 10 -8 0
-15 -4 -15 -10z"/>
<path d="M6361 2603 c0 -5 4 -17 9 -28 8 -18 9 -17 9 8 1 15 -3 27 -9 27 -5 0
-10 -3 -9 -7z"/>
<path d="M6273 2560 c0 -25 2 -35 4 -22 2 12 2 32 0 45 -2 12 -4 2 -4 -23z"/>
<path d="M710 2581 c0 -24 21 -51 39 -51 10 0 35 -7 55 -15 20 -8 36 -11 36
-6 0 5 -15 14 -32 22 -18 7 -48 24 -65 37 -19 14 -33 19 -33 13z"/>
<path d="M5451 2563 c0 -10 -4 -40 -10 -68 -9 -53 -7 -65 12 -65 8 0 7 3 -2 9
-8 6 -9 10 -2 12 15 5 28 129 13 129 -6 0 -11 -8 -11 -17z"/>
<path d="M620 2562 c0 -5 11 -14 24 -21 18 -10 28 -11 42 -2 18 11 17 12 -2 6
-14 -4 -24 0 -28 10 -6 16 -36 21 -36 7z"/>
<path d="M5670 2543 c0 -4 5 -15 10 -23 8 -13 10 -13 10 2 0 9 -4 20 -10 23
-5 3 -10 3 -10 -2z"/>
<path d="M6262 2480 c0 -19 2 -27 5 -17 2 9 2 25 0 35 -3 9 -5 1 -5 -18z"/>
<path d="M1050 2470 c0 -11 -4 -20 -10 -20 -19 0 -10 -24 18 -48 25 -22 25
-24 5 -18 -13 4 -28 4 -34 1 -15 -10 26 -36 45 -29 10 4 16 1 16 -9 0 -13 46
-37 71 -37 14 0 11 38 -3 42 -7 3 -8 9 -3 18 6 10 10 10 21 -4 11 -16 13 -15
28 5 12 18 13 25 3 31 -9 6 -9 10 3 19 12 8 9 9 -10 3 -14 -4 -26 -11 -28 -15
-6 -15 -22 -10 -22 6 0 8 -7 15 -16 15 -10 0 -14 6 -10 15 4 10 -6 20 -31 30
-44 19 -43 19 -43 -5z"/>
<path d="M4621 2464 c0 -11 3 -14 6 -6 3 7 2 16 -1 19 -3 4 -6 -2 -5 -13z"/>
<path d="M1257 2453 c-4 -3 -7 -17 -7 -30 0 -16 6 -23 20 -23 21 0 45 34 35
50 -7 11 -38 13 -48 3z"/>
<path d="M940 2431 c0 -11 48 -51 62 -51 14 0 1 17 -32 40 -17 12 -30 17 -30
11z"/>
<path d="M463 2401 c3 -14 0 -24 -9 -28 -8 -3 -14 -9 -14 -14 0 -6 9 -5 20 1
22 12 27 45 8 56 -8 5 -9 0 -5 -15z"/>
<path d="M6035 2405 c41 -32 63 -54 72 -70 8 -13 27 -18 85 -21 41 -2 91 -11
111 -19 20 -8 50 -15 67 -15 27 0 30 3 30 30 0 20 -5 30 -15 30 -8 0 -14 6
-12 12 1 7 -8 14 -21 16 -12 2 -20 8 -17 13 4 5 -1 9 -10 9 -14 0 -14 -3 0
-30 9 -16 13 -30 10 -30 -2 0 -28 15 -57 33 -90 56 -163 80 -98 32 19 -14 38
-32 43 -40 14 -25 -35 -18 -67 10 -16 14 -37 25 -46 25 -9 0 -20 4 -25 9 -6 4
-23 11 -40 15 -29 6 -29 6 -10 -9z m323 -110 c-3 -3 -9 2 -12 12 -6 14 -5 15
5 6 7 -7 10 -15 7 -18z"/>
<path d="M5741 2394 c7 -8 25 -22 40 -30 15 -7 30 -22 33 -32 6 -19 21 -20
129 -13 29 2 9 21 -21 21 -15 0 -36 6 -47 13 -19 13 -60 30 -118 47 -25 8 -27
7 -16 -6z"/>
<path d="M5890 2399 c0 -4 9 -11 21 -14 11 -4 33 -19 47 -35 33 -34 77 -44
117 -25 17 7 24 14 16 14 -8 1 -42 14 -75 30 -61 29 -126 44 -126 30z"/>
<path d="M648 2377 c-54 -16 -111 -50 -88 -54 8 -1 41 -5 73 -8 31 -4 57 -10
57 -14 0 -4 -13 -20 -28 -37 -16 -16 -32 -42 -36 -57 -5 -21 -11 -27 -24 -23
-23 7 -38 -4 -45 -35 -9 -35 -1 -40 33 -21 32 18 41 14 46 -20 2 -13 5 -34 8
-47 4 -16 -1 -29 -12 -38 -16 -14 -16 -14 1 -9 10 3 17 0 17 -7 0 -9 3 -8 9 1
7 11 11 11 23 -1 9 -9 20 -12 27 -7 16 10 53 1 45 -11 -3 -5 0 -9 5 -9 6 0 11
-11 11 -24 0 -21 6 -25 33 -28 28 -3 34 -8 45 -46 15 -44 37 -49 26 -6 -5 19
-3 25 8 22 7 -2 13 0 13 4 0 4 10 15 23 23 12 9 22 22 22 29 0 8 -10 21 -22
30 l-23 17 24 -7 c21 -6 23 -4 19 20 -3 15 -1 23 5 19 5 -3 6 3 2 16 -5 18 -2
21 23 21 17 0 37 -9 52 -25 12 -13 27 -22 32 -19 5 4 -1 17 -14 31 l-23 26 35
-6 c19 -4 59 -9 88 -13 38 -5 52 -11 53 -23 3 -46 1 -44 36 -35 13 4 21 10 18
14 -2 4 5 16 16 26 24 22 47 60 30 49 -23 -14 -123 -16 -139 -3 -14 12 -141
15 -182 4 -8 -2 -30 -7 -48 -11 -20 -5 -37 -16 -42 -29 -7 -18 -9 -19 -15 -4
-4 9 -23 19 -46 23 -21 4 -39 10 -39 14 0 12 -71 48 -118 61 -49 13 -50 26 -4
55 26 16 31 25 28 47 -3 15 0 31 8 37 10 8 12 4 11 -19 -2 -37 17 -54 51 -46
21 6 25 12 22 34 -2 22 1 26 17 24 37 -5 45 -11 45 -32 0 -21 20 -26 88 -21
17 1 32 -2 32 -7 0 -5 58 -12 128 -15 70 -4 156 -10 190 -13 43 -5 62 -3 62 4
0 7 -12 14 -27 18 -100 21 -304 82 -407 121 -134 51 -188 59 -258 40z"/>
<path d="M5166 2382 c-3 -6 10 -22 29 -36 59 -46 37 -64 -31 -26 -51 29 -113
49 -120 39 -3 -5 -1 -9 3 -9 12 0 76 -60 71 -66 -3 -2 -34 8 -69 24 -73 33
-129 46 -129 32 0 -6 4 -10 9 -10 6 0 27 -16 48 -35 41 -37 88 -54 106 -36 6
6 39 11 73 11 35 0 65 4 68 9 3 5 31 7 61 4 35 -3 64 0 82 9 20 10 38 12 58 6
18 -5 48 -4 73 2 23 6 71 8 106 4 46 -5 65 -3 71 6 5 8 4 11 -2 7 -5 -3 -21 0
-35 7 -27 15 -74 30 -121 40 -26 6 -27 5 -17 -14 9 -16 8 -22 -6 -27 -9 -3
-19 -1 -23 6 -4 7 -12 11 -17 10 -5 -1 -22 3 -37 9 -16 7 -32 12 -37 12 -4 0
-21 7 -36 15 -16 8 -36 15 -44 14 -10 0 -11 -2 -3 -6 19 -7 73 -56 73 -66 0
-12 -58 2 -97 24 -19 11 -42 21 -53 22 -10 2 -25 9 -33 15 -9 8 -18 9 -21 4z"/>
<path d="M5450 2380 c8 -5 20 -10 25 -10 6 0 3 5 -5 10 -8 5 -19 10 -25 10 -5
0 -3 -5 5 -10z"/>
<path d="M5620 2373 c14 -10 38 -30 53 -45 29 -28 65 -35 115 -22 27 8 29 24
2 24 -11 0 -42 11 -68 24 -26 14 -65 27 -87 31 l-40 6 25 -18z"/>
<path d="M500 2290 c0 -5 5 -10 10 -10 6 0 10 5 10 10 0 6 -4 10 -10 10 -5 0
-10 -4 -10 -10z"/>
<path d="M0 2271 c0 -12 5 -21 10 -21 6 0 10 6 10 14 0 8 -4 18 -10 21 -5 3
-10 -3 -10 -14z"/>
<path d="M23 2215 c4 -5 0 -17 -10 -27 -15 -17 -14 -18 16 -18 19 0 30 -4 26
-10 -7 -11 9 -13 41 -4 14 4 22 14 22 30 0 20 -5 24 -33 24 -19 0 -42 3 -52 7
-10 3 -15 2 -10 -2z"/>
<path d="M160 2153 c0 -19 41 -73 51 -67 7 4 3 14 -10 28 -12 12 -21 28 -21
34 0 7 -4 12 -10 12 -5 0 -10 -3 -10 -7z"/>
<path d="M13 2143 c-21 -8 -15 -50 9 -73 12 -11 28 -18 36 -15 7 3 22 5 33 5
16 0 18 4 11 16 -5 9 -7 26 -4 37 4 15 1 19 -9 15 -8 -4 -22 -9 -31 -13 -14
-5 -18 -2 -18 14 0 21 -5 24 -27 14z"/>
<path d="M520 2142 c0 -6 -10 -8 -22 -5 -22 5 -22 5 -5 -13 16 -17 18 -17 33
-2 11 11 12 18 5 22 -6 4 -11 3 -11 -2z"/>
<path d="M288 2096 c-26 -19 -22 -26 16 -26 41 0 54 15 27 29 -24 13 -22 13
-43 -3z"/>
<path d="M2 1853 l0 -205 27 5 c15 3 34 7 42 9 8 2 14 -4 14 -13 0 -18 23 -49
36 -49 4 0 9 17 11 37 4 51 25 53 33 4 7 -43 12 -44 73 -25 7 2 10 -1 7 -6 -5
-9 1 -12 21 -9 4 0 15 -12 25 -28 18 -26 19 -27 19 -5 0 27 0 27 52 -2 24 -13
56 -26 71 -30 25 -6 53 -46 49 -68 -3 -15 57 -128 68 -128 3 0 11 9 18 21 11
17 11 23 0 36 -10 13 -10 17 -1 20 8 3 11 14 7 31 -6 26 -5 26 15 -5 12 -20
26 -30 34 -27 9 3 17 -3 20 -16 3 -12 10 -19 16 -16 19 12 56 -5 68 -30 11
-23 10 -24 -9 -18 -16 5 -18 3 -12 -7 13 -21 16 -59 4 -59 -5 0 -22 13 -37 29
-28 28 -64 51 -81 51 -4 0 -7 -16 -6 -36 3 -31 1 -34 -16 -29 -12 4 -20 2 -20
-5 0 -6 5 -8 11 -4 8 4 9 0 4 -15 -5 -15 -2 -21 9 -21 9 0 16 7 16 15 0 8 5
15 10 15 6 0 10 -4 10 -8 0 -4 15 -8 32 -8 23 1 34 -4 36 -16 3 -14 -3 -18
-22 -18 -16 0 -26 -6 -26 -15 0 -8 -4 -15 -10 -15 -5 0 -10 7 -10 15 0 17 -18
19 -39 6 -9 -6 -11 -16 -7 -27 6 -15 5 -17 -5 -6 -18 17 -70 16 -63 -2 3 -9
-4 -15 -21 -18 -21 -4 -32 2 -59 33 -18 22 -38 39 -45 39 -6 0 -11 6 -10 13 3
24 -1 50 -7 44 -7 -7 -44 36 -44 51 0 6 -10 8 -22 4 -14 -3 -19 -1 -14 6 5 8
-5 11 -33 10 -48 -2 -61 -23 -22 -36 15 -5 28 -17 28 -25 0 -8 -6 -13 -14 -10
-7 3 -25 1 -40 -4 -33 -12 -53 -7 -53 13 0 15 -18 18 -44 8 -13 -5 -14 -9 -5
-20 6 -8 9 -23 6 -33 -3 -12 1 -22 12 -26 14 -6 14 -8 -4 -21 -17 -13 -20 -12
-27 6 -4 11 -13 20 -21 20 -16 0 -10 70 7 83 6 5 2 7 -12 4 -15 -4 -25 0 -29
11 -6 13 -8 13 -14 -4 -12 -30 -10 -193 2 -216 7 -13 8 -23 1 -27 -5 -3 -10
-50 -11 -103 -2 -93 -1 -96 19 -91 26 7 26 -14 0 -22 -13 -4 -20 -15 -20 -31
0 -19 6 -26 30 -30 17 -4 30 -10 30 -15 0 -9 40 -6 57 4 18 11 25 -10 11 -33
-15 -24 -36 -26 -52 -5 -6 8 -26 18 -43 21 l-33 7 0 -112 c0 -61 3 -111 8
-111 4 0 13 9 20 20 10 17 10 20 -3 20 -9 0 -15 9 -15 25 0 15 6 25 14 25 8 0
16 10 18 23 2 14 11 23 26 25 25 4 30 -13 7 -22 -8 -3 -15 -12 -15 -21 0 -13
3 -13 20 -3 11 7 20 20 20 28 0 14 33 50 44 50 3 0 3 -15 0 -33 -6 -45 16 -73
46 -57 12 6 24 9 28 6 3 -3 0 -6 -7 -6 -7 0 -9 -5 -5 -11 3 -6 15 -9 25 -6 11
3 17 2 14 -2 -7 -12 51 -51 75 -51 12 0 18 -4 15 -10 -10 -16 -43 -11 -63 10
-19 20 -82 50 -104 49 -7 0 -2 -5 12 -11 22 -9 23 -11 7 -17 -17 -6 -16 -8 8
-19 14 -7 24 -16 20 -21 -3 -5 5 -17 17 -25 18 -13 19 -16 6 -16 -9 0 -20 -5
-24 -12 -5 -8 -2 -9 10 -5 14 6 15 4 5 -16 -8 -13 -14 -17 -17 -9 -2 7 -13 10
-26 6 -18 -4 -25 -1 -29 15 -3 12 -13 21 -22 21 -9 0 -14 4 -10 9 9 15 -12 23
-66 26 -55 4 -72 -12 -48 -42 10 -12 10 -15 2 -9 -8 4 -13 1 -13 -9 0 -9 13
-22 30 -28 19 -7 30 -18 30 -31 0 -18 -1 -18 -19 -2 -17 16 -19 16 -25 0 -4
-10 1 -22 11 -30 17 -13 17 -13 0 -14 -10 0 -15 -4 -12 -10 3 -5 1 -10 -4 -10
-7 0 -11 -32 -11 -87 0 -47 3 -84 6 -81 3 4 18 2 34 -2 21 -6 30 -4 34 6 7 17
46 19 46 2 0 -16 -47 -39 -64 -32 -8 3 -16 -2 -19 -10 -4 -9 -12 -16 -20 -16
-7 0 -14 -13 -15 -30 -2 -24 1 -28 15 -24 13 4 14 3 5 -3 -7 -5 -15 -26 -19
-46 l-6 -37 696 0 c394 1 699 5 702 10 3 5 0 12 -6 15 -5 4 -8 13 -5 21 4 10
-3 14 -22 14 -34 0 -46 9 -49 36 -2 17 2 21 16 17 11 -3 21 2 24 11 4 9 14 16
22 16 10 0 13 -5 9 -12 -5 -9 -2 -9 9 1 9 7 17 19 16 25 0 6 -3 6 -6 -2 -8
-21 -32 5 -26 28 7 25 19 25 32 3 7 -12 10 -13 11 -4 0 7 6 11 13 8 9 -3 14 6
15 27 5 69 25 89 37 35 4 -17 13 -33 21 -36 8 -3 14 -12 14 -20 0 -8 4 -11 10
-8 5 3 10 1 10 -4 0 -16 -38 -51 -55 -51 -8 0 -14 -6 -13 -12 2 -7 -5 -12 -14
-10 -13 2 -16 -3 -13 -19 6 -28 8 -30 50 -44 25 -9 37 -9 45 -1 8 8 9 6 4 -9
-7 -17 -5 -18 8 -8 18 16 32 5 17 -14 -9 -11 55 -13 385 -12 301 0 396 3 396
12 0 7 -5 41 -10 77 -6 41 -6 68 0 74 18 18 10 23 -42 30 -47 6 -85 21 -153
60 -12 7 -83 11 -185 12 -91 0 -176 3 -190 7 -14 3 -30 6 -36 6 -6 1 -31 19
-56 40 -24 22 -55 41 -68 43 -14 1 -33 16 -45 34 -13 20 -37 37 -67 48 -27 9
-57 26 -68 38 -11 12 -20 18 -20 13 0 -5 -10 1 -22 12 -24 21 -56 23 -68 3 -5
-9 -9 -9 -14 -1 -4 6 -2 11 4 11 6 0 9 4 5 9 -3 5 3 11 12 14 12 3 8 7 -15 12
-35 8 -56 28 -26 25 32 -4 44 0 44 11 0 6 -9 8 -20 4 -16 -5 -20 -2 -20 14 0
12 -5 21 -11 21 -7 0 -9 8 -5 20 3 11 9 29 12 40 4 14 2 20 -9 20 -8 0 -17 7
-21 15 -3 9 -16 20 -28 25 -18 7 -19 9 -5 9 14 1 16 5 7 20 -14 27 -13 29 13
34 l22 4 -22 2 c-16 1 -23 7 -23 21 0 11 -5 20 -11 20 -6 0 -9 11 -7 24 1 13
-3 31 -11 39 -11 14 -11 18 2 23 24 9 37 -4 37 -38 0 -45 8 -31 12 24 4 37 1
48 -11 51 -14 4 -14 5 1 6 27 2 10 38 -27 55 -41 20 -46 20 -39 2 3 -8 19 -18
36 -21 20 -5 26 -10 18 -15 -7 -4 -22 -5 -34 -3 -17 4 -18 3 -6 -6 12 -9 9
-11 -17 -11 -25 0 -35 7 -52 36 -21 36 -21 36 -1 41 11 3 17 9 14 14 -3 5 -10
6 -16 3 -6 -4 -14 0 -19 7 -7 11 -9 10 -9 -3 0 -10 -4 -18 -10 -18 -5 0 -10 9
-10 19 0 11 -6 21 -12 24 -10 3 -10 9 0 27 13 21 12 22 -7 17 -15 -3 -21 0
-21 10 0 10 6 13 18 8 14 -5 13 -2 -4 13 -29 27 -62 36 -79 22 -8 -7 -22 -10
-30 -6 -13 5 -14 10 -4 28 12 22 11 22 -8 6 -11 -10 -23 -18 -27 -18 -9 0 -3
44 9 73 7 16 3 18 -31 15 -34 -3 -39 0 -42 20 -4 29 33 61 72 62 29 0 29 0 10
-22 -10 -12 -13 -18 -5 -13 11 6 13 3 7 -18 -4 -17 -1 -31 10 -41 17 -18 28
-21 20 -7 -4 5 0 12 6 14 10 4 9 8 -2 16 -26 18 -21 49 8 49 22 0 24 -4 19
-32 -4 -25 -1 -35 16 -46 15 -9 22 -9 25 -2 2 8 9 8 22 0 28 -18 53 12 40 47
-13 34 -13 35 6 35 8 0 13 -4 10 -9 -3 -5 12 -28 34 -52 24 -27 40 -38 40 -28
0 8 -5 20 -12 27 -7 7 -8 12 -4 12 5 0 1 12 -9 26 -9 15 -13 24 -7 20 16 -9
23 22 11 48 -14 30 -98 46 -112 21 -12 -21 -35 -19 -42 5 -3 11 -11 20 -16 20
-6 0 -6 -7 1 -19 17 -32 11 -35 -11 -7 -26 34 -37 27 -14 -8 17 -25 17 -26 -4
-26 -11 0 -21 5 -21 10 0 6 -9 10 -20 10 -11 0 -20 7 -20 15 0 9 -7 18 -15 21
-8 4 -15 10 -15 15 0 4 7 6 15 3 24 -10 18 5 -15 35 -21 18 -29 33 -24 44 4
12 1 17 -10 17 -9 0 -16 5 -16 10 0 6 -4 10 -10 10 -16 0 -12 -32 7 -52 29
-32 -6 -20 -53 18 -32 26 -49 34 -61 28 -16 -7 -16 -8 3 -11 24 -4 65 -43 46
-43 -7 0 -12 4 -12 10 0 5 -7 7 -16 3 -13 -5 -13 -7 -2 -14 18 -12 1 -11 -22
1 -15 8 -20 6 -25 -10 -5 -15 -15 -20 -43 -19 -35 0 -36 1 -14 12 17 8 22 17
19 34 -3 16 1 23 12 24 12 0 11 4 -6 16 -13 8 -23 22 -23 29 0 8 -10 14 -23
14 -13 0 -28 5 -35 12 -15 15 -16 3 -2 -23 11 -20 -3 -28 -15 -9 -8 12 -16 12
-34 1 -12 -8 -11 -12 3 -27 17 -17 17 -18 0 -31 -9 -7 -27 -11 -40 -9 -31 6
-84 35 -84 46 0 13 6 13 29 -2 15 -9 23 -9 35 1 25 21 2 50 -44 57 -45 7 -64
34 -24 34 14 0 23 4 20 9 -11 18 6 43 26 38 18 -5 18 -4 4 18 -13 20 -13 24
-1 29 8 3 17 1 20 -5 4 -5 11 -7 16 -3 6 3 3 12 -8 20 -14 11 -15 13 -3 14 8
0 21 -9 28 -20 15 -25 44 -27 35 -2 -6 15 -3 14 17 -3 l23 -20 -8 25 c-4 14
-19 38 -34 55 -14 16 -27 32 -28 34 -2 2 -5 2 -8 -1 -3 -3 4 -17 16 -32 22
-28 21 -48 -1 -21 -7 8 -23 15 -36 15 -27 0 -29 7 -9 34 13 17 19 18 50 9 28
-9 35 -8 35 2 0 8 -6 18 -14 22 -8 4 -16 17 -19 28 -4 18 -5 18 -6 -2 -1 -24
-21 -33 -21 -10 0 30 -40 57 -83 57 -25 0 -37 -4 -29 -8 18 -12 -58 -53 -86
-45 -12 3 -22 9 -22 14 0 5 -7 9 -15 9 -8 0 -15 -4 -15 -10 0 -5 -4 -10 -10
-10 -15 0 -12 16 6 34 18 18 10 38 -14 35 -10 -1 -26 2 -36 6 -13 6 -21 4 -24
-3 -2 -7 -8 -10 -12 -7 -5 3 -7 12 -3 20 3 10 -1 15 -15 15 -11 0 -23 8 -26
17 -5 12 -9 14 -18 5 -14 -14 -42 -16 -34 -3 3 5 -1 11 -9 14 -12 5 -14 -25
-13 -200z m426 79 c2 -7 -2 -10 -12 -6 -9 3 -16 11 -16 16 0 13 23 5 28 -10z
m-369 -16 c11 -13 6 -46 -8 -46 -18 1 -30 18 -24 38 6 25 16 28 32 8z m204 -6
c8 0 7 -4 -1 -12 -9 -9 -16 -8 -30 6 -16 18 -16 19 1 12 10 -3 24 -6 30 -6z
m61 -11 c-3 -5 -10 -7 -15 -3 -5 3 -7 10 -3 15 3 5 10 7 15 3 5 -3 7 -10 3
-15z m76 11 c0 -5 -2 -10 -4 -10 -3 0 -8 5 -11 10 -3 6 -1 10 4 10 6 0 11 -4
11 -10z m40 -9 c0 -5 -7 -11 -15 -15 -15 -5 -20 5 -8 17 9 10 23 9 23 -2z
m-47 -51 c-5 -19 -23 -29 -23 -12 0 7 20 32 26 32 1 0 0 -9 -3 -20z m-353 -4
c0 -2 -7 -7 -16 -10 -8 -3 -12 -2 -9 4 6 10 25 14 25 6z m162 -118 c-7 -7 -12
-8 -12 -2 0 14 12 26 19 19 2 -3 -1 -11 -7 -17z m73 -17 c3 -5 1 -12 -5 -16
-5 -3 -10 1 -10 9 0 18 6 21 15 7z m15 -51 c0 -5 -4 -10 -10 -10 -5 0 -10 5
-10 10 0 6 5 10 10 10 6 0 10 -4 10 -10z m228 -126 c12 -4 22 -11 22 -16 0
-10 -39 -1 -54 13 -12 11 -1 11 32 3z m22 -44 c0 -5 -4 -10 -10 -10 -5 0 -10
5 -10 10 0 6 5 10 10 10 6 0 10 -4 10 -10z m285 -52 c11 -10 -19 -38 -42 -38
-18 0 -34 43 -19 52 12 8 46 1 61 -14z m-80 -38 c-3 -5 -11 -10 -16 -10 -6 0
-7 5 -4 10 3 6 11 10 16 10 6 0 7 -4 4 -10z m80 -132 c-3 -9 -18 -21 -33 -27
l-27 -13 29 31 c31 32 41 35 31 9z m-690 -8 c3 -5 2 -10 -4 -10 -5 0 -13 5
-16 10 -3 6 -2 10 4 10 5 0 13 -4 16 -10z m115 -10 c0 -13 -11 -13 -30 0 -12
8 -11 10 8 10 12 0 22 -4 22 -10z m-37 -46 c-3 -8 -14 -14 -24 -14 -12 0 -19
-7 -19 -20 0 -11 7 -20 15 -20 20 0 19 -17 -2 -28 -15 -9 -14 -11 5 -21 11 -6
22 -21 24 -33 2 -14 12 -24 28 -28 16 -4 21 -8 13 -13 -20 -12 -63 3 -63 23 0
20 -37 38 -90 44 -19 2 -38 4 -42 5 -5 0 -8 8 -8 15 0 13 4 13 35 0 35 -14 45
-8 23 14 -7 7 -23 12 -36 12 -17 0 -23 5 -20 18 4 21 48 30 48 9 0 -9 10 -14
24 -14 19 0 26 6 31 28 4 16 13 29 21 29 9 0 13 4 10 9 -4 5 3 7 13 4 12 -3
17 -11 14 -19z m711 -20 c22 -8 20 -21 -4 -29 -22 -7 -27 -39 -8 -51 6 -4 17
1 25 11 10 14 16 16 24 8 9 -9 8 -16 -5 -28 -9 -9 -16 -22 -16 -28 0 -7 -11 1
-25 16 -25 26 -75 38 -75 17 0 -5 -5 -10 -10 -10 -6 0 0 18 12 40 22 38 38 51
38 30 0 -5 5 -10 10 -10 6 0 10 9 10 20 0 22 1 23 24 14z m-515 -38 c13 -14
29 -22 35 -20 7 3 13 -2 13 -11 0 -26 -44 -17 -66 14 -34 47 -21 59 18 17z
m385 5 c6 -9 -35 -24 -43 -15 -6 5 18 24 31 24 4 0 9 -4 12 -9z m-164 -22 c0
-6 -4 -7 -10 -4 -5 3 -10 11 -10 16 0 6 5 7 10 4 6 -3 10 -11 10 -16z m-270
-36 c-1 -11 -26 -43 -34 -43 -11 0 -6 38 7 43 19 8 27 8 27 0z m529 -2 c2 -1
-2 -8 -9 -16 -10 -12 -10 -15 4 -15 10 0 16 -9 16 -25 0 -17 6 -25 18 -26 10
0 12 -3 5 -6 -22 -8 -14 -20 11 -18 33 4 50 -9 43 -34 -4 -18 -1 -21 29 -21
33 0 33 0 16 -20 -14 -17 -18 -18 -20 -5 -2 9 -14 15 -30 15 -20 0 -23 -3 -14
-12 19 -19 14 -26 -13 -20 -26 5 -33 18 -13 24 18 6 -1 28 -25 28 -18 0 -19
-2 -7 -10 11 -8 12 -12 3 -18 -8 -5 -9 -13 -3 -22 14 -21 12 -42 -2 -37 -7 2
-12 10 -10 16 1 7 -9 10 -26 9 -15 -1 -34 2 -41 7 -10 5 -12 4 -7 -3 4 -7 5
-12 2 -12 -2 0 -11 -3 -20 -6 -11 -4 -16 -1 -16 10 0 9 -5 16 -11 16 -7 0 -9
-9 -6 -21 4 -16 2 -19 -11 -14 -9 3 -30 9 -45 12 -34 7 -34 39 0 36 23 -3 51
23 38 35 -4 4 -10 1 -12 -5 -3 -8 -15 -11 -29 -8 -81 17 -75 12 -56 45 21 36
35 38 50 5 6 -14 16 -25 22 -25 6 0 8 5 5 10 -3 6 -1 10 6 10 8 0 6 6 -4 18
-10 10 -17 24 -17 31 0 14 67 44 81 36 5 -4 16 1 25 9 9 9 20 14 25 11 5 -4 9
0 9 9 0 12 6 13 39 7z m98 -13 c-3 -8 -6 -5 -6 6 -1 11 2 17 5 13 3 -3 4 -12
1 -19z m-543 -4 c9 -24 0 -28 -24 -11 -15 11 -18 16 -8 20 22 9 26 8 32 -9z
m120 -9 c11 -8 15 -15 10 -15 -6 0 -19 7 -30 15 -10 8 -14 14 -9 14 6 0 19 -6
29 -14z m56 -38 c0 -29 -1 -30 -14 -11 -11 14 -11 21 -3 27 9 6 9 10 0 14 -7
2 -13 9 -13 15 0 6 6 6 15 -2 8 -7 15 -26 15 -43z m-100 28 c0 -8 -7 -15 -15
-15 -8 0 -15 7 -15 15 0 8 7 15 15 15 8 0 15 -7 15 -15z m-220 -5 c0 -5 -4
-10 -10 -10 -5 0 -10 5 -10 10 0 6 5 10 10 10 6 0 10 -4 10 -10z m656 -24 c-1
-23 -2 -23 -18 -9 -23 21 -23 33 1 33 14 0 18 -7 17 -24z m-896 4 c0 -5 -4
-10 -10 -10 -5 0 -10 5 -10 10 0 6 5 10 10 10 6 0 10 -4 10 -10z m300 -4 c-8
-8 -2 -14 22 -23 32 -11 32 -12 6 -12 -15 -1 -33 6 -42 14 -8 9 -19 15 -23 14
-19 -3 -27 2 -14 10 21 13 65 11 51 -3z m80 -1 c-7 -8 -16 -12 -21 -9 -13 8
-1 24 18 24 13 0 13 -3 3 -15z m225 6 c3 -6 -4 -15 -15 -21 -19 -10 -20 -10
-8 9 15 24 15 24 23 12z m430 -10 c-3 -6 -11 -8 -17 -5 -6 4 -5 9 3 15 16 10
23 4 14 -10z m-795 -21 c8 -5 12 -12 9 -15 -8 -8 -39 5 -39 16 0 11 11 11 30
-1z m200 -10 c10 -19 9 -20 -13 -15 -22 6 -23 4 -19 -24 4 -30 -10 -42 -24
-20 -3 6 -17 8 -29 5 -13 -3 -26 -2 -29 3 -7 11 30 45 41 38 5 -3 20 3 33 14
31 23 27 23 40 -1z m561 0 c6 -14 -6 -29 -23 -30 -5 0 -8 11 -8 25 0 27 21 30
31 5z m109 -50 c0 -5 -4 -10 -10 -10 -5 0 -10 5 -10 10 0 6 5 10 10 10 6 0 10
-4 10 -10z m-640 -20 c0 -5 -5 -10 -11 -10 -5 0 -7 5 -4 10 3 6 8 10 11 10 2
0 4 -4 4 -10z m615 -10 c3 -5 1 -10 -4 -10 -6 0 -11 5 -11 10 0 6 2 10 4 10 3
0 8 -4 11 -10z m-915 -11 c0 -7 15 -9 43 -5 l42 5 -38 -10 c-20 -6 -44 -8 -52
-5 -17 6 -20 26 -5 26 6 0 10 -5 10 -11z m340 1 c0 -5 -5 -10 -11 -10 -5 0 -7
5 -4 10 3 6 8 10 11 10 2 0 4 -4 4 -10z m477 -5 c0 -8 -4 -12 -9 -9 -4 3 -8 9
-8 15 0 5 4 9 8 9 5 0 9 -7 9 -15z m-377 -5 c0 -5 -4 -10 -9 -10 -6 0 -13 5
-16 10 -3 6 1 10 9 10 9 0 16 -4 16 -10z m496 -18 c-14 -3 -17 -10 -12 -33 6
-32 -17 -43 -28 -13 -3 9 -13 14 -20 11 -8 -3 -17 1 -20 10 -5 13 -1 14 24 9
19 -3 29 -2 25 4 -10 17 4 28 28 22 19 -5 20 -7 3 -10z m-989 2 c-3 -3 -12 -4
-19 -1 -8 3 -5 6 6 6 11 1 17 -2 13 -5z m458 -24 c8 -7 15 -15 15 -19 0 -12
-89 -6 -102 7 -9 9 -9 12 0 12 6 0 9 6 6 14 -4 12 1 13 31 6 19 -4 42 -14 50
-20z m-399 8 c-10 -6 -22 -6 -26 -2 -5 5 3 10 18 11 22 1 24 0 8 -9z m294 -19
c0 -6 -4 -7 -10 -4 -5 3 -10 11 -10 16 0 6 5 7 10 4 6 -3 10 -11 10 -16z m313
9 c-2 -5 -15 -8 -29 -8 -14 0 -23 4 -20 9 3 5 17 8 30 7 13 0 22 -4 19 -8z
m142 3 c3 -5 1 -12 -5 -16 -5 -3 -10 1 -10 9 0 18 6 21 15 7z m-855 -23 c0 -6
-6 -5 -15 2 -8 7 -15 14 -15 16 0 2 7 1 15 -2 8 -4 15 -11 15 -16z m280 6 c0
-13 7 -16 33 -12 53 9 60 -1 26 -33 -33 -31 -44 -35 -54 -19 -3 6 -13 10 -22
10 -15 0 -14 -2 0 -18 10 -10 17 -24 17 -30 0 -7 5 -12 10 -12 6 0 10 -5 10
-11 0 -6 -7 -8 -16 -5 -8 3 -13 2 -10 -3 3 -5 -3 -11 -14 -14 -22 -6 -36 9
-32 36 2 9 -2 17 -7 17 -17 0 -13 25 8 44 11 10 22 28 25 42 7 27 26 33 26 8z
m276 -22 c-4 -21 -26 -28 -26 -8 0 9 4 16 10 16 5 0 7 8 4 18 -5 13 -4 14 4 3
5 -7 9 -21 8 -29z m-606 24 c0 -3 -4 -8 -10 -11 -5 -3 -10 -1 -10 4 0 6 5 11
10 11 6 0 10 -2 10 -4z m237 -2 c-3 -3 -12 -4 -19 -1 -8 3 -5 6 6 6 11 1 17
-2 13 -5z m720 -14 c-3 -10 0 -21 7 -24 6 -2 3 -5 -8 -5 -13 -1 -16 4 -12 15
3 9 6 20 6 25 0 5 3 9 6 9 4 0 4 -9 1 -20z m-1000 4 c-3 -3 -12 -4 -19 -1 -8
3 -5 6 6 6 11 1 17 -2 13 -5z m248 -20 c15 -10 22 -23 20 -35 -2 -10 1 -19 6
-19 6 0 8 -4 5 -9 -3 -5 -15 -7 -26 -4 -15 4 -19 12 -16 29 3 13 -2 31 -10 39
-20 19 -10 19 21 -1z m465 12 c0 -3 -4 -8 -10 -11 -5 -3 -10 -1 -10 4 0 6 5
11 10 11 6 0 10 -2 10 -4z m100 -16 c0 -23 0 -23 -34 -10 -35 13 -33 25 4 28
24 2 30 -2 30 -18z m-205 -1 c9 -14 -4 -27 -13 -13 -4 6 -14 14 -22 17 -10 4
-8 6 7 6 12 1 25 -4 28 -10z m122 -7 c-9 -2 -15 -8 -12 -13 7 -11 -3 -11 -30
1 -19 8 -19 9 2 9 12 1 25 6 28 11 4 6 12 7 18 3 8 -5 6 -9 -6 -11z m-512 -14
c11 -41 28 -68 42 -68 7 0 13 -9 13 -20 0 -12 7 -20 16 -20 9 0 14 -6 12 -12
-8 -22 -36 -20 -58 2 -13 13 -28 19 -40 15 -15 -5 -20 0 -24 17 -11 53 -14 82
-9 95 8 21 41 15 48 -9z m425 -2 c0 -3 -4 -8 -10 -11 -5 -3 -10 -1 -10 4 0 6
5 11 10 11 6 0 10 -2 10 -4z m360 -17 c0 -11 -4 -17 -10 -14 -5 3 -10 13 -10
21 0 8 5 14 10 14 6 0 10 -9 10 -21z m-519 -3 c-14 -17 1 -31 24 -23 7 3 16
-1 19 -9 4 -9 -3 -18 -17 -24 -12 -5 -16 -9 -9 -9 7 -1 10 -5 7 -11 -3 -5 -18
-8 -33 -6 -15 2 -19 1 -9 -1 9 -2 17 -8 17 -13 0 -17 -40 -21 -76 -8 -30 10
-36 10 -44 -2 -6 -9 -10 -10 -10 -3 0 17 29 31 51 26 13 -4 19 0 19 11 0 37
29 86 51 86 17 0 19 -3 10 -14z m69 2 c0 -6 3 -8 7 -5 9 9 34 -13 27 -24 -3
-5 -16 -9 -30 -9 -19 0 -24 5 -24 25 0 14 5 25 10 25 6 0 10 -5 10 -12z m275
2 c-19 -8 -19 -9 3 -9 27 -1 29 -17 2 -24 -11 -3 -20 -1 -20 4 0 5 -4 9 -10 9
-5 0 -6 -7 -3 -17 6 -16 -4 -14 -34 9 -20 15 6 35 47 36 28 0 31 -1 15 -8z
m-90 -10 c-3 -5 -13 -10 -21 -10 -8 0 -12 5 -9 10 3 6 13 10 21 10 8 0 12 -4
9 -10z m400 -10 c3 -5 1 -10 -4 -10 -6 0 -11 5 -11 10 0 6 2 10 4 10 3 0 8 -4
11 -10z m-525 -30 c0 -11 -4 -20 -9 -20 -11 0 -22 26 -14 34 12 12 23 5 23
-14z m100 2 l25 -11 -25 0 c-14 0 -34 6 -45 15 -20 15 -20 15 0 11 11 -2 31
-9 45 -15z m-552 -23 c11 -14 9 -16 -13 -11 -27 5 -33 17 -12 25 6 2 12 4 12
3 1 0 6 -8 13 -17z m395 1 c9 -11 13 -20 7 -20 -5 0 -14 9 -20 20 -6 11 -9 20
-8 20 2 0 11 -9 21 -20z m247 6 c0 -2 -7 -7 -16 -10 -8 -3 -12 -2 -9 4 6 10
25 14 25 6z m-570 -64 c-15 -5 -41 18 -34 30 3 5 15 1 26 -9 11 -10 15 -19 8
-21z m470 28 c0 -5 -4 -10 -10 -10 -5 0 -10 5 -10 10 0 6 5 10 10 10 6 0 10
-4 10 -10z m-190 -10 c0 -5 -4 -10 -10 -10 -5 0 -10 5 -10 10 0 6 5 10 10 10
6 0 10 -4 10 -10z m123 -4 c4 -10 1 -13 -9 -9 -15 6 -19 23 -5 23 5 0 11 -7
14 -14z m-83 -6 c13 -8 13 -10 -2 -10 -9 0 -20 5 -23 10 -8 13 5 13 25 0z
m-76 -44 c-3 -14 -10 -26 -14 -26 -5 0 -15 -3 -23 -6 -11 -4 -16 4 -19 29 -3
30 -1 33 17 29 11 -3 24 -10 28 -16 5 -6 5 0 2 14 -6 19 -4 22 4 14 7 -7 9
-22 5 -38z m-212 12 c-8 -8 -17 -8 -34 0 -22 10 -21 11 12 11 26 1 31 -2 22
-11z m253 -8 c3 -5 1 -10 -4 -10 -6 0 -11 5 -11 10 0 6 2 10 4 10 3 0 8 -4 11
-10z m265 -19 c0 -6 -4 -13 -10 -16 -5 -3 -10 1 -10 9 0 9 5 16 10 16 6 0 10
-4 10 -9z m240 5 c0 -3 -4 -8 -10 -11 -5 -3 -10 -1 -10 4 0 6 5 11 10 11 6 0
10 -2 10 -4z m36 -33 c-7 -7 -26 7 -26 19 0 6 6 6 15 -2 9 -7 13 -15 11 -17z
m-546 13 c0 -2 -9 -6 -20 -9 -11 -3 -18 -1 -14 4 5 9 34 13 34 5z m677 -20 c4
-3 3 -9 -1 -13 -4 -4 -11 -1 -16 7 -7 12 -11 10 -18 -10 -6 -17 -6 -27 2 -32
7 -5 6 -8 -4 -9 -49 -3 -83 -16 -75 -29 3 -5 2 -10 -4 -10 -22 0 -30 72 -10
96 8 10 115 11 126 0z m-683 -41 c-3 -30 -24 -60 -33 -47 -3 5 -15 14 -26 20
-17 10 -17 11 -3 12 9 0 20 -4 23 -10 11 -18 23 -10 18 11 -5 16 8 37 23 39 1
0 0 -11 -2 -25z m-74 5 c8 -5 11 -10 5 -10 -5 0 -17 5 -25 10 -8 5 -10 10 -5
10 6 0 17 -5 25 -10z m825 -10 c3 -5 1 -10 -4 -10 -6 0 -11 5 -11 10 0 6 2 10
4 10 3 0 8 -4 11 -10z m58 -4 c3 -8 0 -17 -8 -19 -11 -5 -13 6 -6 31 2 6 9 0
14 -12z m-878 -49 c6 -5 3 -7 -7 -3 -10 3 -18 1 -18 -4 0 -6 5 -10 10 -10 6 0
10 -7 10 -17 0 -14 -2 -14 -20 2 -14 12 -19 27 -16 44 2 14 5 31 6 36 1 6 7
-1 13 -15 6 -14 16 -29 22 -33z m795 49 c0 -3 -4 -8 -10 -11 -5 -3 -10 -1 -10
4 0 6 5 11 10 11 6 0 10 -2 10 -4z m-1110 -37 c0 -5 -7 -9 -15 -9 -8 0 -15 -5
-15 -11 0 -6 -10 -9 -22 -7 -13 2 -21 8 -18 13 2 6 11 9 18 7 8 -2 11 1 8 7
-3 5 2 11 11 13 21 5 33 0 33 -13z m1268 -40 c36 -54 37 -81 3 -72 -25 6 -28
-14 -6 -43 19 -25 19 -34 -2 -34 -14 0 -15 2 -5 9 11 7 10 10 -3 15 -9 3 -21
3 -26 0 -6 -3 -15 -1 -22 4 -19 15 -67 24 -67 12 0 -5 -7 -10 -16 -10 -8 0
-12 -5 -9 -10 4 -6 12 -7 18 -4 7 4 1 -5 -13 -19 -22 -22 -26 -23 -37 -9 -10
12 -10 18 -2 23 6 4 9 11 6 16 -15 24 38 62 54 40 3 -5 9 -2 12 7 4 9 2 16 -3
16 -6 0 -10 5 -10 11 0 6 7 8 16 5 15 -6 15 -4 3 10 -13 16 -12 16 6 7 11 -6
25 -12 30 -13 6 -1 9 -6 8 -10 -1 -4 4 -11 13 -14 9 -3 12 -2 9 5 -4 5 -1 16
5 24 9 11 9 15 1 15 -6 0 -11 16 -11 35 0 19 3 35 8 35 4 0 22 -23 40 -51z
m-1148 31 c0 -5 -12 -10 -26 -10 -14 0 -23 4 -19 10 3 6 15 10 26 10 10 0 19
-4 19 -10z m916 -27 c-4 -4 -11 -1 -16 7 -16 25 -11 35 7 17 9 -9 13 -20 9
-24z m-772 12 c3 -8 1 -15 -4 -15 -6 0 -10 7 -10 15 0 8 2 15 4 15 2 0 6 -7
10 -15z m806 5 c0 -5 -4 -10 -10 -10 -5 0 -10 5 -10 10 0 6 5 10 10 10 6 0 10
-4 10 -10z m120 -30 c0 -5 -4 -10 -9 -10 -6 0 -13 5 -16 10 -3 6 1 10 9 10 9
0 16 -4 16 -10z m-970 -50 c0 -5 -4 -10 -10 -10 -5 0 -10 5 -10 10 0 6 5 10
10 10 6 0 10 -4 10 -10z m60 -10 l20 -20 -29 0 c-17 0 -33 5 -37 12 -5 8 -2 9
9 5 10 -3 17 -2 17 2 0 5 -6 12 -12 14 -10 4 -10 6 0 6 6 1 21 -8 32 -19z
m-255 -10 c3 -5 1 -10 -4 -10 -6 0 -11 5 -11 10 0 6 2 10 4 10 3 0 8 -4 11
-10z m1055 -9 c0 -6 -4 -13 -10 -16 -5 -3 -10 1 -10 9 0 9 5 16 10 16 6 0 10
-4 10 -9z m290 -30 c0 -6 -4 -13 -10 -16 -5 -3 -10 1 -10 9 0 9 5 16 10 16 6
0 10 -4 10 -9z m-131 -38 c2 -2 -5 -3 -17 -3 -14 0 -22 6 -22 16 0 14 3 15 18
3 9 -7 19 -15 21 -16z m111 -3 c0 -5 -2 -10 -4 -10 -3 0 -8 5 -11 10 -3 6 -1
10 4 10 6 0 11 -4 11 -10z m-380 -4 c0 -3 -4 -8 -10 -11 -5 -3 -10 -1 -10 4 0
6 5 11 10 11 6 0 10 -2 10 -4z m305 -6 c3 -6 -4 -10 -17 -10 -18 0 -20 2 -8
10 19 12 18 12 25 0z m-145 -10 c0 -5 -2 -10 -4 -10 -3 0 -8 5 -11 10 -3 6 -1
10 4 10 6 0 11 -4 11 -10z m307 -14 c-6 -8 -18 -11 -25 -9 -9 4 -8 9 5 18 22
16 37 9 20 -9z m-1537 4 c0 -5 -2 -10 -4 -10 -3 0 -8 5 -11 10 -3 6 -1 10 4
10 6 0 11 -4 11 -10z m-10 -20 c13 -8 13 -10 -2 -10 -9 0 -20 5 -23 10 -8 13
5 13 25 0z m1390 0 c0 -5 -2 -10 -4 -10 -3 0 -8 5 -11 10 -3 6 -1 10 4 10 6 0
11 -4 11 -10z m-170 -40 c0 -5 -5 -10 -11 -10 -5 0 -7 5 -4 10 3 6 8 10 11 10
2 0 4 -4 4 -10z m-1170 -20 c0 -5 -4 -10 -10 -10 -5 0 -10 5 -10 10 0 6 5 10
10 10 6 0 10 -4 10 -10z m1610 0 c0 -5 -5 -10 -11 -10 -5 0 -7 5 -4 10 3 6 8
10 11 10 2 0 4 -4 4 -10z m110 -23 c0 4 7 -3 16 -15 9 -13 14 -26 11 -29 -8
-8 -67 7 -67 18 0 10 -35 7 -46 -4 -13 -13 -21 -7 -19 16 2 18 7 21 29 19 15
-2 26 2 26 9 0 7 9 5 25 -5 14 -9 25 -13 25 -9z m-140 -20 c-1 -46 -53 -74
-66 -34 -7 21 21 51 37 41 5 -3 9 2 9 11 0 9 5 13 10 10 6 -3 10 -16 10 -28z
m-1542 5 c6 -18 -15 -14 -22 4 -4 10 -1 14 6 12 6 -2 14 -10 16 -16z m-68 -32
c0 -11 -4 -20 -10 -20 -5 0 -10 9 -10 20 0 11 5 20 10 20 6 0 10 -9 10 -20z
m1842 -10 c3 -17 3 -30 2 -30 -2 0 -14 4 -28 10 -35 13 -36 50 -2 50 19 0 25
-6 28 -30z m-422 0 c0 -5 -5 -10 -11 -10 -5 0 -7 5 -4 10 3 6 8 10 11 10 2 0
4 -4 4 -10z m498 1 c24 -2 12 -19 -17 -23 -22 -3 -31 0 -34 12 -3 13 1 17 17
15 11 -1 27 -3 34 -4z m-736 -23 c-7 -7 -12 -8 -12 -2 0 14 12 26 19 19 2 -3
-1 -11 -7 -17z m348 12 c0 -5 -4 -10 -9 -10 -6 0 -13 5 -16 10 -3 6 1 10 9 10
9 0 16 -4 16 -10z"/>
<path d="M810 986 c0 -9 5 -16 10 -16 6 0 10 4 10 9 0 6 -4 13 -10 16 -5 3
-10 -1 -10 -9z"/>
<path d="M940 940 c0 -5 5 -10 11 -10 5 0 7 5 4 10 -3 6 -8 10 -11 10 -2 0 -4
-4 -4 -10z"/>
<path d="M1125 515 c-30 -13 -30 -13 -4 -14 14 -1 34 6 45 14 25 19 1 19 -41
0z"/>
<path d="M583 2053 c9 -2 25 -2 35 0 9 3 1 5 -18 5 -19 0 -27 -2 -17 -5z"/>
<path d="M337 2006 c-28 -36 -34 -56 -17 -56 6 0 10 7 10 16 0 20 22 42 38 36
14 -4 15 7 3 26 -6 10 -15 4 -34 -22z"/>
<path d="M406 2023 c-11 -11 -6 -23 8 -23 8 0 17 4 20 9 7 10 -19 23 -28 14z"/>
<path d="M5146 2005 c4 -8 10 -15 15 -15 4 0 6 7 3 15 -4 8 -10 15 -15 15 -4
0 -6 -7 -3 -15z"/>
<path d="M950 1970 c0 -5 5 -10 11 -10 5 0 7 5 4 10 -3 6 -8 10 -11 10 -2 0
-4 -4 -4 -10z"/>
<path d="M5270 1972 c0 -7 -7 -12 -15 -12 -8 0 -15 -4 -15 -10 0 -5 4 -10 9
-10 13 0 35 29 27 37 -3 3 -6 1 -6 -5z"/>
<path d="M5121 1944 c0 -11 3 -14 6 -6 3 7 2 16 -1 19 -3 4 -6 -2 -5 -13z"/>
<path d="M5152 1938 c2 -6 10 -14 16 -16 7 -2 10 2 6 12 -7 18 -28 22 -22 4z"/>
<path d="M5110 1905 c-7 -9 -8 -15 -2 -15 5 0 12 7 16 15 3 8 4 15 2 15 -2 0
-9 -7 -16 -15z"/>
<path d="M1718 1758 c9 -9 15 -9 24 0 9 9 7 12 -12 12 -19 0 -21 -3 -12 -12z"/>
<path d="M5674 1669 c-3 -6 -2 -15 3 -20 5 -5 9 -1 9 11 0 23 -2 24 -12 9z"/>
<path d="M5937 1643 c-15 -14 -7 -81 9 -87 16 -6 16 -8 0 -24 -18 -20 -23
-102 -6 -102 6 0 10 -5 10 -11 0 -5 -4 -7 -10 -4 -5 3 -10 1 -10 -5 0 -6 7
-10 16 -8 8 2 15 6 15 11 -1 4 -1 17 -1 30 0 18 -2 19 -10 7 -7 -11 -10 -6
-10 20 0 25 3 31 9 21 7 -10 11 -1 16 32 6 36 3 53 -10 73 -13 20 -14 28 -4
40 11 14 -1 21 -14 7z"/>
<path d="M1305 1609 c-16 -10 -38 -16 -47 -13 -12 3 -18 0 -18 -9 0 -20 34
-11 80 20 41 27 28 30 -15 2z"/>
<path d="M5256 1603 c-6 -14 -5 -15 5 -6 7 7 10 15 7 18 -3 3 -9 -2 -12 -12z"/>
<path d="M0 1577 c0 -19 4 -25 15 -21 8 4 15 10 15 14 0 4 -7 13 -15 20 -13
11 -15 8 -15 -13z"/>
<path d="M6111 1593 c0 -5 4 -17 9 -28 8 -18 9 -17 9 8 1 15 -3 27 -9 27 -5 0
-10 -3 -9 -7z"/>
<path d="M6152 1565 c0 -16 2 -22 5 -12 2 9 2 23 0 30 -3 6 -5 -1 -5 -18z"/>
<path d="M5255 1569 c-11 -17 1 -21 15 -4 8 9 8 15 2 15 -6 0 -14 -5 -17 -11z"/>
<path d="M5912 1550 c0 -14 2 -19 5 -12 2 6 2 18 0 25 -3 6 -5 1 -5 -13z"/>
<path d="M5555 1510 c-3 -5 -1 -10 4 -10 6 0 11 5 11 10 0 6 -2 10 -4 10 -3 0
-8 -4 -11 -10z"/>
<path d="M5588 1453 c-11 -3 -18 -13 -17 -26 0 -15 2 -17 6 -7 4 8 13 20 22
27 17 13 16 13 -11 6z"/>
<path d="M5215 1400 c-3 -5 -1 -10 4 -10 6 0 11 5 11 10 0 6 -2 10 -4 10 -3 0
-8 -4 -11 -10z"/>
<path d="M5212 1360 c0 -14 2 -19 5 -12 2 6 2 18 0 25 -3 6 -5 1 -5 -13z"/>
<path d="M5945 1243 c4 -49 9 -99 11 -113 2 -14 7 -63 11 -110 7 -80 7 -82 14
-40 4 25 3 72 -3 105 -7 41 -6 61 1 63 11 4 4 60 -11 79 -5 7 -10 33 -10 58 0
25 -4 45 -10 45 -6 0 -7 -31 -3 -87z"/>
<path d="M5285 1280 c3 -5 8 -10 11 -10 2 0 4 5 4 10 0 6 -5 10 -11 10 -5 0
-7 -4 -4 -10z"/>
<path d="M1000 1256 c0 -2 7 -9 15 -16 13 -11 14 -10 9 4 -5 14 -24 23 -24 12z"/>
<path d="M6098 1124 c-5 -96 -4 -113 7 -102 11 11 17 165 8 183 -8 13 -12 -7
-15 -81z"/>
<path d="M1150 1085 c0 -8 7 -15 16 -15 14 0 14 3 4 15 -7 8 -14 15 -16 15 -2
0 -4 -7 -4 -15z"/>
<path d="M5260 1043 c0 -26 4 -54 9 -62 6 -9 9 6 10 42 0 31 -4 59 -9 62 -6 4
-10 -14 -10 -42z"/>
<path d="M1135 1050 c3 -5 8 -10 11 -10 2 0 4 5 4 10 0 6 -5 10 -11 10 -5 0
-7 -4 -4 -10z"/>
<path d="M2103 1052 c-9 -5 -7 -16 9 -40 24 -38 28 -39 28 -9 0 30 -22 59 -37
49z"/>
<path d="M5481 1024 c0 -11 3 -14 6 -6 3 7 2 16 -1 19 -3 4 -6 -2 -5 -13z"/>
<path d="M5572 1005 c0 -11 3 -29 8 -40 11 -25 11 1 0 35 -6 20 -8 21 -8 5z"/>
<path d="M6096 1002 c-4 -7 -4 -16 -1 -22 3 -5 -3 -30 -15 -54 -12 -28 -20
-66 -20 -101 0 -31 -4 -111 -10 -178 -5 -67 -15 -183 -21 -257 -6 -74 -13
-142 -16 -150 -3 -8 -5 -52 -5 -97 1 -148 0 -143 22 -143 19 0 20 7 21 98 0
53 4 117 8 142 4 29 7 -7 6 -98 0 -130 1 -142 18 -142 16 0 17 10 11 138 -3
75 -10 142 -14 147 -4 6 -10 26 -12 45 -3 19 -8 44 -12 55 -6 16 -6 17 3 5 6
-8 11 -10 12 -5 3 19 9 170 13 330 2 88 9 186 16 218 12 60 10 91 -4 69z"/>
<path d="M2141 954 c0 -11 3 -14 6 -6 3 7 2 16 -1 19 -3 4 -6 -2 -5 -13z"/>
<path d="M5966 914 c-8 -27 -4 -94 5 -88 10 6 5 -69 -6 -85 -3 -6 -13 -11 -21
-11 -8 0 -14 -4 -14 -9 0 -6 9 -8 21 -6 17 3 19 0 13 -18 -11 -36 -11 -138 1
-134 5 2 11 34 11 71 1 37 4 70 8 73 11 12 7 175 -5 168 -6 -4 -5 2 3 14 9 15
10 23 1 32 -8 8 -13 6 -17 -7z"/>
<path d="M5278 897 c-3 -19 -2 -25 4 -19 6 6 8 18 6 28 -3 14 -5 12 -10 -9z"/>
<path d="M5290 849 c0 -5 -4 -7 -10 -4 -5 3 -10 -3 -10 -14 0 -12 7 -21 15
-21 9 0 15 9 15 25 0 14 -2 25 -5 25 -3 0 -5 -5 -5 -11z"/>
<path d="M5875 832 c-11 -8 -13 -13 -20 -79 -12 -102 -15 -198 -6 -178 14 31
35 161 28 178 -3 8 -3 18 1 22 4 4 7 20 7 36 0 16 0 29 0 29 0 0 -4 -4 -10 -8z"/>
<path d="M5431 825 c0 -5 6 -19 14 -29 11 -14 13 -34 9 -71 -4 -36 -3 -55 5
-60 7 -4 15 -4 19 0 3 3 1 9 -5 13 -12 8 -13 28 -2 47 11 18 -3 85 -16 85 -7
0 -16 6 -18 13 -3 6 -6 8 -6 2z"/>
<path d="M5412 790 c0 -19 3 -44 8 -55 8 -18 9 -18 8 5 0 14 -4 39 -8 55 l-8
30 0 -35z"/>
<path d="M5271 784 c0 -11 3 -14 6 -6 3 7 2 16 -1 19 -3 4 -6 -2 -5 -13z"/>
<path d="M6145 760 c-3 -5 -1 -10 4 -10 6 0 11 5 11 10 0 6 -2 10 -4 10 -3 0
-8 -4 -11 -10z"/>
<path d="M5270 745 c0 -8 5 -15 10 -15 6 0 10 7 10 15 0 8 -4 15 -10 15 -5 0
-10 -7 -10 -15z"/>
<path d="M5221 734 c0 -11 3 -14 6 -6 3 7 2 16 -1 19 -3 4 -6 -2 -5 -13z"/>
<path d="M5575 740 c3 -5 8 -10 11 -10 2 0 4 5 4 10 0 6 -5 10 -11 10 -5 0 -7
-4 -4 -10z"/>
<path d="M6331 734 c0 -11 3 -14 6 -6 3 7 2 16 -1 19 -3 4 -6 -2 -5 -13z"/>
<path d="M5586 705 c-3 -8 -1 -15 4 -15 6 0 10 7 10 15 0 8 -2 15 -4 15 -2 0
-6 -7 -10 -15z"/>
<path d="M5610 677 c0 -8 6 -14 14 -14 8 0 12 6 9 14 -3 7 -9 13 -14 13 -5 0
-9 -6 -9 -13z"/>
<path d="M5461 604 c0 -11 3 -14 6 -6 3 7 2 16 -1 19 -3 4 -6 -2 -5 -13z"/>
<path d="M5481 594 c-1 -12 6 -37 14 -55 l16 -34 -7 35 c-4 19 -10 44 -15 55
-7 19 -8 19 -8 -1z"/>
<path d="M3223 564 c-18 -14 -33 -30 -33 -36 0 -6 9 -3 21 8 14 12 22 15 27 7
11 -18 44 11 36 31 -8 21 -13 20 -51 -10z"/>
<path d="M6116 489 c-6 -96 -4 -120 10 -107 8 9 12 185 4 198 -4 6 -10 -35
-14 -91z"/>
<path d="M177 535 c-4 -8 -2 -17 3 -20 6 -4 10 3 10 14 0 25 -6 27 -13 6z"/>
<path d="M5816 531 c-4 -7 -5 -15 -2 -18 3 -3 -1 -17 -8 -32 -25 -47 -52 -430
-29 -408 15 15 29 133 23 188 -3 30 -2 72 2 94 30 154 34 209 14 176z m-29
-253 c-3 -8 -6 -5 -6 6 -1 11 2 17 5 13 3 -3 4 -12 1 -19z"/>
<path d="M5952 515 c0 -16 2 -22 5 -12 2 9 2 23 0 30 -3 6 -5 -1 -5 -18z"/>
<path d="M5481 474 c0 -11 3 -14 6 -6 3 7 2 16 -1 19 -3 4 -6 -2 -5 -13z"/>
<path d="M5939 438 c-7 -23 -16 -47 -21 -52 -11 -14 -10 -28 2 -21 13 8 13
-11 1 -34 -6 -10 -13 -71 -16 -137 -3 -65 -8 -127 -11 -136 -15 -63 -16 -63
-5 -48 7 10 11 11 11 3 0 -7 10 -13 23 -13 21 0 23 5 23 40 -1 22 3 40 8 40 4
0 5 17 1 38 -3 20 -8 56 -10 80 -1 23 -6 50 -9 58 -4 12 -2 15 9 10 15 -5 21
5 8 17 -9 10 -10 67 0 67 4 0 7 7 7 16 0 8 4 13 8 10 9 -5 -3 92 -12 101 -2 3
-10 -15 -17 -39z"/>
<path d="M6281 423 c0 -15 3 -22 6 -15 2 6 9 10 14 6 14 -8 10 6 -6 22 -13 14
-15 12 -14 -13z"/>
<path d="M6091 375 c0 -12 4 -26 9 -31 6 -6 13 -69 15 -140 6 -173 11 -204 37
-204 16 0 19 5 14 27 -3 16 -8 73 -11 128 -3 55 -10 116 -17 135 -7 19 -11 46
-9 60 3 20 1 22 -12 11 -13 -10 -16 -8 -20 11 -4 20 -4 20 -6 3z"/>
<path d="M6341 277 c-1 -23 -5 -36 -11 -32 -5 3 -10 -1 -10 -9 0 -9 7 -16 15
-16 10 0 15 -9 14 -27 -2 -24 -2 -25 -6 -5 -2 12 -8 22 -13 22 -12 0 -17 -41
-9 -70 4 -14 7 -51 8 -82 1 -58 1 -58 31 -58 l30 0 0 68 c0 38 -3 72 -7 76 -4
4 -7 24 -6 44 2 36 1 36 -7 7 -7 -26 -8 -23 -10 25 -2 68 -18 115 -19 57z"/>
<path d="M5253 253 c-5 -21 -15 -37 -21 -35 -13 2 -17 -70 -4 -82 4 -4 7 -18
7 -29 0 -12 6 -21 13 -20 6 2 12 -2 12 -8 0 -6 -6 -9 -14 -6 -14 6 -26 -19
-26 -55 0 -31 19 -19 23 15 l4 32 2 -35 c1 -27 4 -31 11 -20 6 10 10 11 10 3
0 -7 4 -13 10 -13 5 0 8 13 6 30 -2 20 1 30 9 30 13 0 12 62 0 98 -7 19 -25 5
-25 -19 0 -10 -5 -19 -10 -19 -10 0 -8 46 6 138 7 44 -2 41 -13 -5z"/>
<path d="M6370 275 c0 -5 5 -17 10 -25 5 -8 10 -10 10 -5 0 6 -5 17 -10 25 -5
8 -10 11 -10 5z"/>
<path d="M5726 228 c-3 -17 -2 -36 4 -42 7 -7 10 4 10 32 0 50 -5 54 -14 10z"/>
<path d="M2931 169 c-19 -16 -32 -31 -29 -35 3 -3 21 8 40 24 43 39 33 49 -11
11z"/>
<path d="M6291 174 c0 -11 3 -14 6 -6 3 7 2 16 -1 19 -3 4 -6 -2 -5 -13z"/>
<path d="M2802 109 c-45 -34 -81 -63 -79 -66 6 -5 67 30 67 40 0 4 6 7 13 7
11 1 98 80 87 80 -3 0 -42 -28 -88 -61z"/>
<path d="M5724 124 c4 -19 10 -42 13 -50 3 -8 0 -14 -5 -14 -6 0 -13 8 -15 18
-3 9 -3 -2 -1 -25 2 -26 -1 -43 -9 -46 -7 -3 3 -6 22 -6 32 -1 33 0 27 31 -4
18 -9 54 -12 81 -4 26 -11 47 -16 47 -6 0 -8 -14 -4 -36z"/>
<path d="M5752 130 c0 -14 2 -19 5 -12 2 6 2 18 0 25 -3 6 -5 1 -5 -13z"/>
<path d="M6285 141 c-4 -7 -3 -16 3 -20 5 -3 12 -15 15 -26 l5 -20 0 20 c1 33
-13 61 -23 46z"/>
<path d="M5525 110 c3 -5 8 -10 11 -10 2 0 4 5 4 10 0 6 -5 10 -11 10 -5 0 -7
-4 -4 -10z"/>
<path d="M2685 90 c-3 -5 -2 -10 4 -10 5 0 13 5 16 10 3 6 2 10 -4 10 -5 0
-13 -4 -16 -10z"/>
<path d="M6186 83 c-6 -14 -5 -15 5 -6 7 7 10 15 7 18 -3 3 -9 -2 -12 -12z"/>
<path d="M1404 79 c-3 -6 -1 -15 6 -19 7 -4 9 -13 6 -19 -4 -6 -2 -11 4 -11 6
0 9 -4 6 -9 -4 -5 8 -12 25 -16 22 -5 34 -3 40 6 14 23 10 29 -16 29 -18 0
-28 7 -35 25 -10 27 -24 32 -36 14z"/>
<path d="M5533 55 c0 -22 2 -30 4 -17 2 12 2 30 0 40 -3 9 -5 -1 -4 -23z"/>
<path d="M2655 70 c-3 -5 -1 -10 4 -10 6 0 11 5 11 10 0 6 -2 10 -4 10 -3 0
-8 -4 -11 -10z"/>
<path d="M2645 20 c-10 -11 -14 -20 -8 -20 5 0 20 9 33 20 16 14 19 20 8 20
-8 0 -23 -9 -33 -20z"/>
<path d="M5307 25 c-4 -8 -2 -17 3 -20 6 -4 10 3 10 14 0 25 -6 27 -13 6z"/>
<path d="M2700 19 c0 -5 5 -7 10 -4 6 3 10 8 10 11 0 2 -4 4 -10 4 -5 0 -10
-5 -10 -11z"/>
<path d="M5631 14 c0 -11 3 -14 6 -6 3 7 2 16 -1 19 -3 4 -6 -2 -5 -13z"/>
</g>
</svg>
